<?xml version="1.0" encoding="UTF-8"?>
<svg width="270px" height="91px" viewBox="0 0 270 91" version="1.1" xmlns="http://www.w3.org/2000/svg" xmlns:xlink="http://www.w3.org/1999/xlink">
    <!-- Generator: Sketch 52.1 (67048) - http://www.bohemiancoding.com/sketch -->
    <title>logo</title>
    <desc>Created with Sketch.</desc>
    <defs>
        <polygon id="path-1" points="0.3605212 2.7822 26.6595097 2.7822 26.6595097 42 0.3605212 42"></polygon>
        <polygon id="path-3" points="1.2726 2.7552 25.44 2.7552 25.44 42 1.2726 42"></polygon>
    </defs>
    <g id="logo" stroke="none" stroke-width="1" fill="none" fill-rule="evenodd">
        <g id="Group-33">
            <path d="M26.8923,84.4344 C27.7863,84.4344 28.5423,84.7524 29.1633,85.3914 C29.8023,86.0304 30.1203,86.7984 30.1203,87.6924 C30.1203,88.5864 29.8023,89.3424 29.1633,89.9634 C28.5423,90.6024 27.7863,90.9204 26.8923,90.9204 L7.0773,90.9204 C6.1833,90.9204 5.4273,90.6024 4.8063,89.9634 C4.1673,89.3424 3.8463,88.5864 3.8463,87.6924 L3.8463,54.8754 C3.8463,53.9664 4.1673,53.1984 4.8063,52.5774 C5.4273,51.9384 6.1833,51.6204 7.0773,51.6204 L7.1043,51.6204 L26.8923,51.6774 C27.7863,51.6774 28.5513,51.9954 29.1903,52.6314 C29.8113,53.2704 30.1203,54.0384 30.1203,54.9324 C30.1203,55.8264 29.8023,56.5824 29.1633,57.2034 C28.5423,57.8424 27.7863,58.1604 26.8923,58.1604 L26.8623,58.1604 L10.3323,58.1064 L10.3323,68.0424 L22.2663,68.0424 C23.1603,68.0424 23.9283,68.3514 24.5673,68.9724 C25.2063,69.6114 25.5243,70.3764 25.5243,71.2704 C25.5243,72.1644 25.2063,72.9324 24.5673,73.5684 C23.9283,74.1894 23.1603,74.4984 22.2663,74.4984 L10.3323,74.4984 L10.3323,84.4344 L26.8923,84.4344 Z" id="Fill-1" fill="#231F20"></path>
            <g id="Group-5" transform="translate(36.000000, 48.921000)">
                <mask id="mask-2" fill="white">
                    <use xlink:href="#path-1"></use>
                </mask>
                <g id="Clip-4"></g>
                <path d="M26.6343,30.3132 C26.4873,33.5802 25.1853,36.3432 22.7193,38.6052 C20.2383,40.8702 17.2833,42.0012 13.8513,42.0012 C10.8783,42.0012 8.2143,41.3622 5.8623,40.0842 C3.0333,38.5512 1.2363,36.3252 0.4683,33.4062 C0.2523,32.5482 0.3603,31.7382 0.7983,30.9702 C1.2543,30.2052 1.9113,29.7102 2.7693,29.4942 C3.6273,29.2752 4.4403,29.3832 5.2023,29.8212 C5.9703,30.2772 6.4623,30.9342 6.6843,31.7922 C7.0113,33.0132 7.9053,33.9732 9.3633,34.6662 C10.6803,35.2662 12.1743,35.5692 13.8513,35.5692 C15.5703,35.5692 17.0373,35.0292 18.2583,33.9522 C19.5003,32.8962 20.1573,31.5822 20.2293,30.0132 C20.2653,29.0622 19.9293,28.2162 19.2153,27.4662 C18.0843,26.2632 16.1883,25.6422 13.5243,25.6062 L13.4973,25.6062 L13.4433,25.6062 L13.3893,25.6062 C8.9193,25.5342 5.4963,24.2472 3.1233,21.7482 C1.1733,19.6692 0.2613,17.2512 0.3873,14.4972 C0.5343,11.2122 1.8363,8.4372 4.3023,6.1752 C6.7653,3.9132 9.7203,2.7822 13.1703,2.7822 C16.1433,2.7822 18.8073,3.4212 21.1623,4.6962 C23.9883,6.2292 25.7853,8.4552 26.5533,11.3772 C26.7723,12.2322 26.6523,13.0452 26.1963,13.8132 C25.7583,14.5782 25.1103,15.0702 24.2523,15.2892 C23.3943,15.5082 22.5813,15.3972 21.8193,14.9592 C21.0513,14.5032 20.5593,13.8462 20.3373,12.9912 C20.0103,11.7672 19.1073,10.8102 17.6283,10.1172 C16.3323,9.5142 14.8473,9.2142 13.1703,9.2142 C11.4513,9.2142 9.9753,9.7512 8.7333,10.8282 C7.5123,11.9052 6.8643,13.2192 6.7923,14.7672 C6.7563,15.7182 7.0923,16.5762 7.8063,17.3412 C8.9373,18.5262 10.8333,19.1382 13.4973,19.1742 L13.6353,19.1742 C18.1023,19.2492 21.5253,20.5452 23.8983,23.0622 C25.8483,25.1232 26.7603,27.5412 26.6343,30.3132" id="Fill-3" fill="#231F20" mask="url(#mask-2)"></path>
            </g>
            <path d="M87.7563,68.0691 C89.3103,68.0331 90.6303,67.5291 91.7253,66.5631 C92.8203,65.5791 93.3663,64.4091 93.3663,63.0621 C93.3663,61.6941 92.8023,60.5151 91.6713,59.5311 C90.5403,58.5441 89.1723,58.0521 87.5673,58.0521 L79.3833,58.0521 L79.3833,68.0691 L87.7563,68.0691 Z M87.5673,51.5931 C90.9573,51.5931 93.8493,52.7151 96.2403,54.9591 C98.6493,57.2031 99.8523,59.9031 99.8523,63.0621 C99.8523,66.1611 98.6943,68.8251 96.3783,71.0511 C94.0773,73.2591 91.2873,74.4171 88.0023,74.5281 L87.9753,74.5281 L87.9483,74.5281 L87.8943,74.5281 C87.6933,74.5461 87.5823,74.5551 87.5673,74.5551 L87.4023,74.5281 L79.3833,74.5281 L79.3833,87.6921 C79.3833,88.5861 79.0713,89.3421 78.4503,89.9631 C77.8143,90.6021 77.0493,90.9201 76.1553,90.9201 C75.2583,90.9201 74.5023,90.6021 73.8813,89.9631 C73.2423,89.3421 72.9243,88.5861 72.9243,87.6921 L72.9243,54.8211 C72.9243,53.9301 73.2423,53.1711 73.8813,52.5501 C74.5023,51.9111 75.2583,51.5931 76.1553,51.5931 L87.5673,51.5931 Z" id="Fill-6" fill="#231F20"></path>
            <path d="M127.8258,76.1418 L122.5428,63.4428 L117.2868,76.1418 L127.8258,76.1418 Z M107.7888,90.6738 C106.9698,90.3288 106.3878,89.7438 106.0398,88.9218 C105.7128,88.1028 105.7128,87.2808 106.0398,86.4588 L109.5138,78.1128 L109.5138,78.0858 L119.5878,53.7828 C119.6238,53.6928 119.6688,53.5998 119.7228,53.5098 L119.7768,53.3718 C119.8338,53.2998 119.8698,53.2548 119.8878,53.2338 C119.8878,53.2158 119.9148,53.1708 119.9688,53.0988 C120.0228,53.0448 120.0618,53.0088 120.0798,52.9878 C120.0798,52.9698 120.1068,52.9338 120.1608,52.8798 C120.2358,52.8078 120.2688,52.7628 120.2688,52.7418 C120.2868,52.7238 120.3258,52.6968 120.3828,52.6608 C120.4548,52.5858 120.4998,52.5498 120.5148,52.5498 C120.4998,52.5498 120.5358,52.5228 120.6288,52.4688 C120.7008,52.4148 120.7458,52.3788 120.7638,52.3608 L120.8748,52.2768 C120.9648,52.2228 121.0188,52.1958 121.0368,52.1958 C121.0728,52.1778 121.1388,52.1478 121.2288,52.1118 C121.3188,52.0578 121.3488,52.0398 121.3098,52.0578 C121.2738,52.0788 121.3098,52.0578 121.4208,52.0038 C121.5138,51.9858 121.5768,51.9678 121.6128,51.9498 C121.6308,51.9498 121.6938,51.9318 121.8018,51.8928 L121.9128,51.8658 C121.9488,51.8658 122.0148,51.8568 122.1048,51.8388 L122.2428,51.8118 L122.4048,51.8118 L122.5428,51.8118 L122.7078,51.8118 L122.8728,51.8118 L123.0348,51.8388 L123.1698,51.8658 C123.2088,51.8658 123.2718,51.8868 123.3648,51.9228 C123.4728,51.9408 123.5118,51.9498 123.4728,51.9498 C123.6918,52.0038 123.8898,52.0848 124.0758,52.1958 C124.0548,52.1778 124.0938,52.1958 124.1838,52.2498 C124.2738,52.3038 124.3308,52.3398 124.3488,52.3608 L124.4598,52.4418 C124.5288,52.4958 124.5768,52.5318 124.5948,52.5498 C124.6128,52.5498 124.6488,52.5798 124.7058,52.6338 C124.7598,52.6878 124.8048,52.7238 124.8408,52.7418 C124.8408,52.7628 124.8708,52.7988 124.9218,52.8528 C124.9968,52.9248 125.0328,52.9698 125.0328,52.9878 L125.1168,53.0988 C125.1888,53.1708 125.2248,53.2158 125.2248,53.2338 C125.2248,53.2548 125.2518,53.2998 125.3058,53.3718 C125.3628,53.4468 125.3898,53.4918 125.3898,53.5098 C125.4438,53.5998 125.4888,53.6928 125.5248,53.7828 L135.5958,78.0858 L135.5958,78.1128 L139.0698,86.4588 C139.3968,87.2808 139.3968,88.1028 139.0698,88.9218 C138.7248,89.7438 138.1398,90.3288 137.3178,90.6738 C136.9158,90.8388 136.5078,90.9198 136.0878,90.9198 C134.6448,90.9198 133.6518,90.2568 133.1058,88.9218 L130.4808,82.5738 L114.6348,82.5738 L112.0068,88.9218 C111.4578,90.2568 110.4648,90.9198 109.0218,90.9198 L108.3918,90.9198 C108.3918,90.9198 108.1908,90.8388 107.7888,90.6738 Z" id="Fill-8" fill="#231F20"></path>
            <path d="M163.9752,90.9207 C158.5932,90.9207 153.9852,89.0157 150.1542,85.1997 C146.3412,81.3687 144.4332,76.7637 144.4332,71.3787 C144.4332,65.9817 146.3412,61.3737 150.1542,57.5577 C153.9852,53.7297 158.5932,51.8127 163.9752,51.8127 C168.4092,51.8127 172.3872,53.1627 175.9092,55.8627 C176.6022,56.4117 177.0132,57.1197 177.1392,57.9957 C177.2502,58.8927 177.0312,59.6937 176.4822,60.4047 C175.9332,61.1157 175.2222,61.5267 174.3462,61.6377 C173.4522,61.7457 172.6512,61.5387 171.9372,61.0077 C169.6032,59.2017 166.9482,58.2987 163.9752,58.2987 C160.3812,58.2987 157.3062,59.5767 154.7532,62.1297 C152.1972,64.6827 150.9192,67.7667 150.9192,71.3787 C150.9192,74.9757 152.1972,78.0477 154.7532,80.6037 C157.3062,83.1567 160.3812,84.4347 163.9752,84.4347 C167.3682,84.4347 170.3052,83.3037 172.7892,81.0417 C173.4432,80.4387 174.2202,80.1567 175.1142,80.1927 C176.0082,80.2287 176.7582,80.5857 177.3582,81.2607 C177.9612,81.9177 178.2432,82.6917 178.2072,83.5857 C178.1682,84.4797 177.8232,85.2297 177.1662,85.8297 C173.4252,89.2257 169.0302,90.9207 163.9752,90.9207" id="Fill-10" fill="#231F20"></path>
            <path d="M190.6323,90.9207 C189.7383,90.9207 188.9793,90.6027 188.3583,89.9637 C187.7193,89.3427 187.4013,88.5867 187.4013,87.6927 L187.4013,55.0437 C187.4013,54.1467 187.7193,53.3907 188.3583,52.7697 C188.9793,52.1307 189.7383,51.8127 190.6323,51.8127 C191.5263,51.8127 192.2823,52.1307 192.9033,52.7697 C193.5423,53.3907 193.8603,54.1467 193.8603,55.0437 L193.8603,87.6927 C193.8603,88.5867 193.5423,89.3427 192.9033,89.9637 C192.2823,90.6027 191.5263,90.9207 190.6323,90.9207" id="Fill-12" fill="#231F20"></path>
            <path d="M225.0591,76.1418 L219.7791,63.4428 L214.5231,76.1418 L225.0591,76.1418 Z M205.0251,90.6738 C204.2061,90.3288 203.6211,89.7438 203.2761,88.9218 C202.9461,88.1028 202.9461,87.2808 203.2761,86.4588 L206.7501,78.1128 L206.7501,78.0858 L216.8241,53.7828 C216.8601,53.6928 216.9051,53.5998 216.9591,53.5098 L217.0131,53.3718 C217.0701,53.2998 217.1061,53.2548 217.1211,53.2338 C217.1211,53.2158 217.1511,53.1708 217.2051,53.0988 C217.2591,53.0448 217.2981,53.0088 217.3161,52.9878 C217.3161,52.9698 217.3431,52.9338 217.3971,52.8798 C217.4721,52.8078 217.5051,52.7628 217.5051,52.7418 C217.5231,52.7238 217.5621,52.6968 217.6191,52.6608 C217.6881,52.5858 217.7361,52.5498 217.7511,52.5498 C217.7361,52.5498 217.7691,52.5228 217.8651,52.4688 C217.9371,52.4148 217.9821,52.3788 217.9971,52.3608 L218.1111,52.2768 C218.2011,52.2228 218.2521,52.1958 218.2731,52.1958 C218.3091,52.1778 218.3721,52.1478 218.4651,52.1118 C218.5551,52.0578 218.5851,52.0398 218.5461,52.0578 C218.5101,52.0788 218.5461,52.0578 218.6571,52.0038 C218.7471,51.9858 218.8101,51.9678 218.8491,51.9498 C218.8671,51.9498 218.9301,51.9318 219.0381,51.8928 L219.1491,51.8658 C219.1851,51.8658 219.2481,51.8568 219.3411,51.8388 L219.4791,51.8118 L219.6411,51.8118 L219.7791,51.8118 L219.9441,51.8118 L220.1091,51.8118 L220.2711,51.8388 L220.4061,51.8658 C220.4451,51.8658 220.5081,51.8868 220.6011,51.9228 C220.7091,51.9408 220.7481,51.9498 220.7091,51.9498 C220.9281,52.0038 221.1261,52.0848 221.3121,52.1958 C221.2911,52.1778 221.3301,52.1958 221.4201,52.2498 C221.5101,52.3038 221.5671,52.3398 221.5851,52.3608 L221.6931,52.4418 C221.7651,52.4958 221.8131,52.5318 221.8311,52.5498 C221.8491,52.5498 221.8851,52.5798 221.9391,52.6338 C221.9961,52.6878 222.0411,52.7238 222.0771,52.7418 C222.0771,52.7628 222.1071,52.7988 222.1581,52.8528 C222.2331,52.9248 222.2691,52.9698 222.2691,52.9878 L222.3531,53.0988 C222.4251,53.1708 222.4611,53.2158 222.4611,53.2338 C222.4611,53.2548 222.4881,53.2998 222.5421,53.3718 C222.5991,53.4468 222.6231,53.4918 222.6231,53.5098 C222.6801,53.5998 222.7251,53.6928 222.7611,53.7828 L232.8321,78.0858 L232.8321,78.1128 L236.3091,86.4588 C236.6361,87.2808 236.6361,88.1028 236.3091,88.9218 C235.9641,89.7438 235.3761,90.3288 234.5571,90.6738 C234.1551,90.8388 233.7471,90.9198 233.3271,90.9198 C231.8841,90.9198 230.8881,90.2568 230.3421,88.9218 L227.7171,82.5738 L211.8711,82.5738 L209.2431,88.9218 C208.6941,90.2568 207.7011,90.9198 206.2581,90.9198 L205.6281,90.9198 C205.6281,90.9198 205.4271,90.8388 205.0251,90.6738 Z" id="Fill-14" fill="#231F20"></path>
            <g id="Group-18" transform="translate(243.000000, 48.921000)">
                <mask id="mask-4" fill="white">
                    <use xlink:href="#path-3"></use>
                </mask>
                <g id="Clip-17"></g>
                <path d="M4.5036,2.7552 C5.3976,2.7552 6.1536,3.0732 6.7746,3.7122 C7.4136,4.3332 7.7316,5.0892 7.7316,5.9832 L7.7316,35.5422 L22.2096,35.5422 C23.1036,35.5422 23.8686,35.8602 24.5076,36.4992 C25.1286,37.1202 25.4406,37.8762 25.4406,38.7702 C25.4406,39.6642 25.1286,40.4232 24.5076,41.0412 C23.8686,41.6802 23.1036,42.0012 22.2096,42.0012 L4.5036,42.0012 C3.6066,42.0012 2.8506,41.6802 2.2296,41.0412 C1.5906,40.4232 1.2726,39.6642 1.2726,38.7702 L1.2726,5.9832 C1.2726,5.0892 1.5906,4.3332 2.2296,3.7122 C2.8506,3.0732 3.6066,2.7552 4.5036,2.7552" id="Fill-16" fill="#231F20" mask="url(#mask-4)"></path>
            </g>
            <path d="M22.0317,24.5223 L16.7487,11.8233 L11.4927,24.5223 L22.0317,24.5223 Z M1.9977,39.0543 C1.1757,38.7093 0.5937,38.1243 0.2457,37.3023 C-0.0813,36.4803 -0.0813,35.6613 0.2457,34.8393 L3.7197,26.4933 L3.7197,26.4633 L13.7937,2.1603 C13.8297,2.0703 13.8747,1.9803 13.9317,1.8903 L13.9827,1.7523 C14.0397,1.6773 14.0787,1.6323 14.0937,1.6143 C14.0937,1.5963 14.1207,1.5513 14.1777,1.4763 C14.2287,1.4223 14.2677,1.3863 14.2857,1.3683 C14.2857,1.3503 14.3127,1.3143 14.3667,1.2603 C14.4417,1.1853 14.4777,1.1403 14.4777,1.1223 C14.4957,1.1043 14.5317,1.0773 14.5887,1.0383 C14.6607,0.9663 14.7057,0.9303 14.7237,0.9303 C14.7057,0.9303 14.7417,0.9033 14.8347,0.8493 C14.9067,0.7923 14.9517,0.7563 14.9697,0.7383 L15.0807,0.6573 C15.1707,0.6033 15.2247,0.5763 15.2427,0.5763 C15.2817,0.5553 15.3447,0.5283 15.4347,0.4923 C15.5277,0.4383 15.5547,0.4203 15.5157,0.4383 C15.4797,0.4563 15.5157,0.4383 15.6267,0.3843 C15.7197,0.3663 15.7827,0.3453 15.8187,0.3303 C15.8367,0.3303 15.8997,0.3093 16.0107,0.2733 L16.1187,0.2463 C16.1547,0.2463 16.2207,0.2373 16.3107,0.2193 L16.4487,0.1923 L16.6107,0.1923 L16.7487,0.1923 L16.9137,0.1923 L17.0787,0.1923 L17.2407,0.2193 L17.3787,0.2463 C17.4147,0.2463 17.4777,0.2643 17.5707,0.3003 C17.6787,0.3183 17.7177,0.3303 17.6787,0.3303 C17.8977,0.3843 18.0987,0.4653 18.2817,0.5763 C18.2637,0.5553 18.2997,0.5763 18.3897,0.6303 C18.4827,0.6843 18.5367,0.7203 18.5547,0.7383 L18.6657,0.8223 C18.7377,0.8763 18.7827,0.9123 18.8007,0.9303 C18.8217,0.9303 18.8547,0.9573 18.9117,1.0143 C18.9687,1.0683 19.0107,1.1043 19.0497,1.1223 C19.0497,1.1403 19.0767,1.1763 19.1307,1.2303 C19.2027,1.3053 19.2387,1.3503 19.2387,1.3683 L19.3227,1.4763 C19.3947,1.5513 19.4307,1.5963 19.4307,1.6143 C19.4307,1.6323 19.4607,1.6773 19.5117,1.7523 C19.5687,1.8243 19.5957,1.8693 19.5957,1.8903 C19.6497,1.9803 19.6977,2.0703 19.7307,2.1603 L29.8047,26.4633 L29.8047,26.4933 L33.2787,34.8393 C33.6057,35.6613 33.6057,36.4803 33.2787,37.3023 C32.9337,38.1243 32.3487,38.7093 31.5267,39.0543 C31.1247,39.2193 30.7167,39.3003 30.2967,39.3003 C28.8537,39.3003 27.8607,38.6343 27.3147,37.3023 L24.6867,30.9543 L8.8407,30.9543 L6.2127,37.3023 C5.6667,38.6343 4.6707,39.3003 3.2277,39.3003 L2.5977,39.3003 C2.5977,39.3003 2.3997,39.2193 1.9977,39.0543 Z" id="Fill-19" fill="#231F20"></path>
            <path d="M58.4859,39.1911 C53.0829,39.1911 48.4689,37.2741 44.6379,33.4431 C40.8039,29.6121 38.8899,24.9951 38.8899,19.5951 C38.8899,14.1951 40.8039,9.5871 44.6379,5.7741 C48.4689,1.9431 53.0829,0.0261 58.4859,0.0261 C62.9199,0.0261 66.8889,1.3791 70.3899,4.0761 C71.1009,4.6251 71.5239,5.3451 71.6499,6.2391 C71.7579,7.1151 71.5419,7.9101 70.9929,8.6211 C70.4439,9.3321 69.7329,9.7431 68.8569,9.8511 C67.9629,9.9801 67.1619,9.7701 66.4479,9.2241 C64.0959,7.4181 61.4409,6.5121 58.4859,6.5121 C54.8739,6.5121 51.7809,7.7901 49.2069,10.3461 C46.6539,12.9171 45.3759,16.0011 45.3759,19.5951 C45.3759,23.2071 46.6539,26.3001 49.2069,28.8741 C51.7809,31.4271 54.8739,32.7051 58.4859,32.7051 C61.8609,32.7051 64.7979,31.5651 67.2999,29.2851 C67.3329,29.2491 67.3989,29.1921 67.4889,29.1201 L67.5189,21.9471 L56.8149,21.9471 C55.9059,21.9471 55.1379,21.6381 54.5169,21.0171 C53.8779,20.3781 53.5569,19.6131 53.5569,18.7191 C53.5569,17.8251 53.8779,17.0601 54.5169,16.4211 C55.1379,15.7821 55.9059,15.4641 56.8149,15.4641 L70.7739,15.4641 C71.6679,15.4641 72.4329,15.7821 73.0719,16.4211 C73.7109,17.0601 74.0319,17.8251 74.0319,18.7191 L73.9479,36.0711 C73.9479,36.9651 73.6299,37.7211 72.9909,38.3421 C72.3699,38.9811 71.6139,39.3021 70.7169,39.3021 L70.6899,39.3021 C69.9609,39.3021 69.3039,39.0711 68.7219,38.6181 C68.1579,38.1801 67.7829,37.6221 67.5999,36.9471 C64.7349,38.4411 61.6959,39.1911 58.4859,39.1911" id="Fill-21" fill="#231F20"></path>
            <path d="M107.3091,32.8146 C108.2031,32.8146 108.9621,33.1326 109.5831,33.7716 C110.2221,34.4106 110.5401,35.1786 110.5401,36.0696 C110.5401,36.9636 110.2221,37.7226 109.5831,38.3436 C108.9621,38.9826 108.2031,39.3006 107.3091,39.3006 L87.4971,39.3006 C86.6031,39.3006 85.8441,38.9826 85.2261,38.3436 C84.5871,37.7226 84.2661,36.9636 84.2661,36.0696 L84.2661,3.2556 C84.2661,2.3436 84.5871,1.5786 85.2261,0.9576 C85.8441,0.3186 86.6031,0.0006 87.4971,0.0006 L87.5211,0.0006 L107.3091,0.0546 C108.2031,0.0546 108.9711,0.3756 109.6101,1.0116 C110.2311,1.6506 110.5401,2.4186 110.5401,3.3126 C110.5401,4.2036 110.2221,4.9626 109.5831,5.5836 C108.9621,6.2226 108.2031,6.5406 107.3091,6.5406 L107.2821,6.5406 L90.7521,6.4866 L90.7521,16.4196 L102.6831,16.4196 C103.5801,16.4196 104.3451,16.7316 104.9841,17.3526 C105.6231,17.9916 105.9411,18.7566 105.9411,19.6506 C105.9411,20.5446 105.6231,21.3096 104.9841,21.9486 C104.3451,22.5696 103.5801,22.8786 102.6831,22.8786 L90.7521,22.8786 L90.7521,32.8146 L107.3091,32.8146 Z" id="Fill-23" fill="#231F20"></path>
            <path d="M145.2426,38.0691 L145.2126,38.0691 L145.2126,38.0421 L125.5386,12.7251 L125.5386,36.0711 C125.5386,36.9651 125.2176,37.7211 124.5786,38.3421 C123.9576,38.9811 123.2016,39.3021 122.3046,39.3021 C121.4136,39.3021 120.6576,38.9811 120.0366,38.3421 C119.3976,37.7211 119.0766,36.9651 119.0766,36.0711 L119.0766,3.2841 C119.0766,2.5911 119.2806,1.9701 119.6796,1.4241 C120.0816,0.8571 120.6096,0.4641 121.2666,0.2481 C121.9056,0.0081 122.5626,-0.0099 123.2376,0.1911 C123.8946,0.3921 124.4316,0.7671 124.8516,1.3131 L144.5316,26.6571 L144.5316,3.2841 C144.5316,2.3901 144.8406,1.6311 145.4586,1.0131 C146.0976,0.3741 146.8656,0.0561 147.7596,0.0561 C148.6536,0.0561 149.4126,0.3741 150.0306,1.0131 C150.6696,1.6311 150.9876,2.3901 150.9876,3.2841 L150.9876,36.1251 C150.9876,36.1611 150.9786,36.2181 150.9606,36.2901 L150.9606,36.4281 C150.9606,36.4641 150.9516,36.5181 150.9336,36.5901 C150.9336,36.6651 150.9276,36.7191 150.9066,36.7551 L150.8796,36.8901 C150.8616,36.9831 150.8436,37.0371 150.8226,37.0581 C150.8226,37.0731 150.8046,37.1211 150.7716,37.1931 C150.7506,37.2651 150.7326,37.3191 150.7146,37.3581 L150.6606,37.4931 L150.5766,37.6311 C150.5586,37.6671 150.5346,37.7211 150.4956,37.7961 L150.4146,37.8771 C150.3966,37.9131 150.3606,37.9671 150.3036,38.0421 L150.2226,38.1501 C150.2046,38.1681 150.1686,38.2041 150.1116,38.2611 C150.0576,38.3331 150.0216,38.3691 150.0036,38.3691 C150.0036,38.3871 149.9676,38.4261 149.8956,38.4801 C149.8386,38.5341 149.7936,38.5701 149.7576,38.5881 C149.8116,38.5521 149.8056,38.5611 149.7306,38.6181 L149.7006,38.6421 C149.5566,38.7531 149.4216,38.8431 149.2926,38.9181 L149.2656,38.9181 C149.1186,38.9901 148.9716,39.0531 148.8246,39.1101 C148.7556,39.1461 148.7346,39.1551 148.7736,39.1341 C148.6266,39.1911 148.4706,39.2271 148.3056,39.2451 L148.2246,39.2721 C148.0596,39.2901 147.9066,39.3021 147.7596,39.3021 C147.6516,39.3021 147.5316,39.2901 147.4056,39.2721 C147.4386,39.2901 147.4236,39.2901 147.3486,39.2721 C147.2406,39.2541 147.1476,39.2361 147.0756,39.2181 C147.0936,39.2361 147.0546,39.2271 146.9646,39.1911 C146.8746,39.1731 146.8026,39.1551 146.7456,39.1341 C146.7276,39.1341 146.6916,39.1191 146.6376,39.0801 C146.5476,39.0651 146.4726,39.0351 146.4186,38.9991 C146.3826,38.9991 146.3436,38.9811 146.3076,38.9451 C146.2356,38.9091 146.1726,38.8821 146.1186,38.8641 C146.0616,38.8251 146.0256,38.7981 146.0076,38.7801 C145.9536,38.7441 145.8906,38.6991 145.8156,38.6421 C145.7616,38.6061 145.7256,38.5791 145.7046,38.5611 C145.6146,38.4891 145.5336,38.4141 145.4586,38.3421 L145.4316,38.3151 L145.4316,38.2881 L145.3236,38.1801 C145.3236,38.1801 145.2966,38.1411 145.2426,38.0691" id="Fill-25" fill="#231F20"></path>
            <path d="M179.8629,39.3012 C174.4809,39.3012 169.8729,37.3932 166.0419,33.5802 C162.2289,29.7492 160.3209,25.1412 160.3209,19.7592 C160.3209,14.3592 162.2289,9.7512 166.0419,5.9382 C169.8729,2.1072 174.4809,0.1902 179.8629,0.1902 C184.2969,0.1902 188.2749,1.5432 191.7969,4.2402 C192.4869,4.7892 192.9009,5.5002 193.0269,6.3762 C193.1349,7.2702 192.9189,8.0742 192.3699,8.7852 C191.8209,9.4962 191.1099,9.9072 190.2339,10.0182 C189.3399,10.1262 188.5389,9.9162 187.8249,9.3882 C185.4909,7.5822 182.8359,6.6762 179.8629,6.6762 C176.2689,6.6762 173.1939,7.9542 170.6409,10.5102 C168.0849,13.0632 166.8069,16.1472 166.8069,19.7592 C166.8069,23.3562 168.0849,26.4282 170.6409,28.9842 C173.1939,31.5372 176.2689,32.8152 179.8629,32.8152 C183.2559,32.8152 186.1929,31.6812 188.6769,29.4222 C189.3309,28.8192 190.1079,28.5372 191.0019,28.5732 C191.8959,28.6092 192.6429,28.9662 193.2459,29.6382 C193.8459,30.2982 194.1309,31.0722 194.0919,31.9662 C194.0559,32.8602 193.7109,33.6072 193.0509,34.2102 C189.3129,37.6032 184.9179,39.3012 179.8629,39.3012" id="Fill-27" fill="#231F20"></path>
            <path d="M206.52,39.3012 C205.623,39.3012 204.867,38.9832 204.246,38.3442 C203.607,37.7232 203.289,36.9642 203.289,36.0702 L203.289,3.4212 C203.289,2.5272 203.607,1.7712 204.246,1.1502 C204.867,0.5112 205.623,0.1902 206.52,0.1902 C207.414,0.1902 208.17,0.5112 208.791,1.1502 C209.43,1.7712 209.748,2.5272 209.748,3.4212 L209.748,36.0702 C209.748,36.9642 209.43,37.7232 208.791,38.3442 C208.17,38.9832 207.414,39.3012 206.52,39.3012" id="Fill-29" fill="#231F20"></path>
            <path d="M240.9468,24.5223 L235.6638,11.8233 L230.4108,24.5223 L240.9468,24.5223 Z M220.9128,39.0543 C220.0938,38.7093 219.5088,38.1243 219.1608,37.3023 C218.8338,36.4803 218.8338,35.6613 219.1608,34.8393 L222.6378,26.4933 L222.6378,26.4633 L232.7088,2.1603 C232.7478,2.0703 232.7898,1.9803 232.8468,1.8903 L232.9008,1.7523 C232.9548,1.6773 232.9938,1.6323 233.0088,1.6143 C233.0088,1.5963 233.0388,1.5513 233.0928,1.4763 C233.1468,1.4223 233.1828,1.3863 233.2038,1.3683 C233.2038,1.3503 233.2308,1.3143 233.2848,1.2603 C233.3598,1.1853 233.3928,1.1403 233.3928,1.1223 C233.4108,1.1043 233.4498,1.0773 233.5038,1.0383 C233.5758,0.9663 233.6238,0.9303 233.6388,0.9303 C233.6238,0.9303 233.6568,0.9033 233.7498,0.8493 C233.8218,0.7923 233.8698,0.7563 233.8848,0.7383 L233.9958,0.6573 C234.0888,0.6033 234.1398,0.5763 234.1608,0.5763 C234.1968,0.5553 234.2598,0.5283 234.3528,0.4923 C234.4428,0.4383 234.4698,0.4203 234.4338,0.4383 L234.5418,0.3843 C234.6348,0.3663 234.6978,0.3453 234.7368,0.3303 C234.7548,0.3303 234.8178,0.3093 234.9258,0.2733 L235.0338,0.2463 C235.0728,0.2463 235.1358,0.2373 235.2288,0.2193 L235.3668,0.1923 L235.5288,0.1923 L235.6638,0.1923 L235.8288,0.1923 L235.9938,0.1923 L236.1558,0.2193 L236.2938,0.2463 C236.3328,0.2463 236.3928,0.2643 236.4888,0.3003 C236.5968,0.3183 236.6328,0.3303 236.5968,0.3303 C236.8158,0.3843 237.0138,0.4653 237.1968,0.5763 C237.1788,0.5553 237.2178,0.5763 237.3078,0.6303 C237.3978,0.6843 237.4548,0.7203 237.4728,0.7383 L237.5808,0.8223 C237.6528,0.8763 237.7008,0.9123 237.7188,0.9303 C237.7368,0.9303 237.7728,0.9573 237.8268,1.0143 C237.8838,1.0683 237.9288,1.1043 237.9648,1.1223 C237.9648,1.1403 237.9918,1.1763 238.0458,1.2303 C238.1208,1.3053 238.1538,1.3503 238.1538,1.3683 L238.2378,1.4763 C238.3098,1.5513 238.3488,1.5963 238.3488,1.6143 C238.3488,1.6323 238.3758,1.6773 238.4298,1.7523 C238.4838,1.8243 238.5108,1.8693 238.5108,1.8903 C238.5678,1.9803 238.6128,2.0703 238.6488,2.1603 L248.7198,26.4633 L248.7198,26.4933 L252.1968,34.8393 C252.5238,35.6613 252.5238,36.4803 252.1968,37.3023 C251.8488,38.1243 251.2638,38.7093 250.4448,39.0543 C250.0428,39.2193 249.6348,39.3003 249.2118,39.3003 C247.7688,39.3003 246.7758,38.6343 246.2298,37.3023 L243.6018,30.9543 L227.7588,30.9543 L225.1308,37.3023 C224.5818,38.6343 223.5888,39.3003 222.1458,39.3003 L221.5158,39.3003 C221.5158,39.3003 221.3148,39.2193 220.9128,39.0543 Z" id="Fill-31" fill="#231F20"></path>
        </g>
    </g>
</svg>