<?xml version="1.0" encoding="UTF-8"?>
<svg width="297px" height="134px" viewBox="0 0 297 134" version="1.1" xmlns="http://www.w3.org/2000/svg" xmlns:xlink="http://www.w3.org/1999/xlink">
    <!-- Generator: Sketch 46.2 (44496) - http://www.bohemiancoding.com/sketch -->
    <title>logo</title>
    <desc>Created with Sketch.</desc>
    <defs></defs>
    <g id="Page-1" stroke="none" stroke-width="1" fill="none" fill-rule="evenodd">
        <g id="INICIO" transform="translate(-25.000000, -40.000000)">
            <g id="logo" transform="translate(27.000000, 40.000000)">
                <polygon id="Fill-1" fill="#F8EC31" points="14 75.0851089 117.894682 62 118 127 14.2821017 126.716809"></polygon>
                <polygon id="Fill-2" fill="#00ADEE" points="16.4094731 8 15 9.5468813 15.2814431 75 119 56.6475781 118.960869 8.40004257"></polygon>
                <polygon id="Stroke-3" stroke="#231F20" stroke-width="3" points="14 126 118 126 118 8 14 8"></polygon>
                <g id="Group-118">
                    <path d="M26.7167653,131.663012 L117.497747,112.375758 C117.497747,112.375758 108.112684,66.063204 62.4900306,75.7556729 C16.8681301,85.4488932 26.7167653,131.663012 26.7167653,131.663012" id="Fill-4" fill="#FEFEFE"></path>
                    <path d="M26.7167653,131.663012 L117.497747,112.375758 C117.497747,112.375758 108.112684,66.063204 62.4900306,75.7556729 C16.8681301,85.4488932 26.7167653,131.663012 26.7167653,131.663012 Z" id="Stroke-6" stroke="#231F20" stroke-width="3"></path>
                    <path d="M46.6110536,102.706883 C46.6110536,102.706883 44.9501735,93.9371486 53.0942806,92.2073972 C61.2383878,90.4768944 63.0986939,99.2037983 63.0986939,99.2037983" id="Stroke-8" stroke="#231F20" stroke-width="1.3" stroke-linecap="round"></path>
                    <path d="M71.032463,97.5182299 C71.032463,97.5182299 69.3715829,88.7492469 77.5156901,87.0187441 C85.6597972,85.2882412 87.5201033,94.0151452 87.5201033,94.0151452" id="Stroke-10" stroke="#231F20" stroke-width="1.3" stroke-linecap="round"></path>
                    <path d="M117.497446,112.375607 L117.497446,112.375607 C117.497446,112.375607 117.489168,112.37711 117.473365,112.380867 L117.497446,112.375607 Z" id="Stroke-12" stroke="#231F20"></path>
                    <path d="M103.73532,47.7965932 C103.73532,47.7965932 79.7808686,52.8911695 76.9919145,74.4942768 C110.163611,76.2300395 117.496468,112.371475 117.497221,112.375232 L103.73532,47.7965932 Z" id="Fill-14" fill="#231F20"></path>
                    <path d="M26.7167653,131.662937 L26.7408469,131.657677 C26.7250434,131.661434 26.7167653,131.662937 26.7167653,131.662937 L26.7167653,131.662937 Z" id="Stroke-16" stroke="#231F20"></path>
                    <path d="M48.3295791,80.6986141 C36.9984184,61.9801791 12.9544133,67.0837723 12.9544133,67.0837723 L26.7170663,131.663162 C26.7163138,131.659405 19.1035077,95.900439 48.3295791,80.6986141" id="Fill-18" fill="#231F20"></path>
                    <polygon id="Fill-20" fill="#231F20" points="70.7603406 114.657572 83.230111 100.036589 53.4087717 106.372498"></polygon>
                    <path d="M77.4986824,111.027198 L102.57293,98.6506836" id="Stroke-22" stroke="#231F20" stroke-linecap="round"></path>
                    <path d="M77.8930944,112.877927 L109.074293,108.120734" id="Stroke-24" stroke="#231F20" stroke-linecap="round"></path>
                    <path d="M63.2337768,114.540051 L35.2847844,113.428712" id="Stroke-26" stroke="#231F20" stroke-linecap="round"></path>
                    <path d="M63.6281888,116.39078 L31.0780995,125.518186" id="Stroke-28" stroke="#231F20" stroke-linecap="round"></path>
                    <path d="M0.710483418,31.3884508 L117.459744,6.60987458 C117.459744,6.60987458 130.024335,62.8553492 74.380713,74.6645469 C18.7378431,86.474496 0.710483418,31.3884508 0.710483418,31.3884508" id="Fill-30" fill="#FEFEFE"></path>
                    <path d="M0.710483418,31.3884508 L117.459744,6.60987458 C117.459744,6.60987458 130.024335,62.8553492 74.380713,74.6645469 C18.7378431,86.474496 0.710483418,31.3884508 0.710483418,31.3884508 Z" id="Stroke-32" stroke="#231F20" stroke-width="3"></path>
                    <path d="M75.2840753,36.098304 C75.2840753,36.098304 72.7758227,25.5056429 62.8429018,27.6141062 C52.9092283,29.7218181 55.1751594,40.3663266 55.1751594,40.3663266" id="Stroke-34" stroke="#231F20" stroke-width="1.5" stroke-linecap="round"></path>
                    <path d="M117.460045,6.6101 L135.151767,89.7185689 C135.151767,89.7185689 92.8057207,99.1495463 83.9143304,57.3830379 C75.0229401,15.6165294 117.460045,6.6101 117.460045,6.6101" id="Fill-36" fill="#231F20"></path>
                    <path d="M117.460045,6.6101 L135.151767,89.7185689 C135.151767,89.7185689 92.8057207,99.1495463 83.9143304,57.3830379 C75.0229401,15.6165294 117.460045,6.6101 117.460045,6.6101 Z" id="Stroke-38" stroke="#231F20"></path>
                    <path d="M12.4784247,52.5171915 L21.0981441,26.9556435 L0.710784439,31.2830277 C0.710784439,31.2830277 5.97788903,44.4710672 12.4784247,52.5171915" id="Fill-40" fill="#231F20"></path>
                    <path d="M34.2218061,71.3384949 C34.2218061,71.3384949 60.0606454,79.047235 70.2983495,60.9103932" id="Stroke-42" stroke="#231F20" stroke-width="1.5" stroke-linecap="round"></path>
                    <path d="M26.8720166,47.6276757 C26.8720166,48.1671898 26.4340319,48.6045119 25.8937003,48.6045119 C25.3533686,48.6045119 24.9153839,48.1671898 24.9153839,47.6276757 C24.9153839,47.0881616 25.3533686,46.6508395 25.8937003,46.6508395 C26.4340319,46.6508395 26.8720166,47.0881616 26.8720166,47.6276757" id="Fill-44" fill="#231F20"></path>
                    <path d="M25.3718814,52.4470847 C25.3718814,52.9144633 24.9925957,53.2939266 24.5237564,53.2939266 C24.0556696,53.2939266 23.6756314,52.9144633 23.6756314,52.4470847 C23.6756314,51.9797062 24.0556696,51.6002429 24.5237564,51.6002429 C24.9925957,51.6002429 25.3718814,51.9797062 25.3718814,52.4470847" id="Fill-46" fill="#231F20"></path>
                    <path d="M28.7309681,57.2013463 C28.7309681,57.7588944 28.2786849,58.2104932 27.7202921,58.2104932 C27.1618992,58.2104932 26.7088635,57.7588944 26.7088635,57.2013463 C26.7088635,56.6437983 27.1618992,56.1921994 27.7202921,56.1921994 C28.2786849,56.1921994 28.7309681,56.6437983 28.7309681,57.2013463" id="Fill-48" fill="#231F20"></path>
                    <path d="M30.9160753,53.0331864 C30.9160753,53.7522881 30.3320957,54.3353842 29.6119043,54.3353842 C28.8909605,54.3353842 28.3069809,53.7522881 28.3069809,53.0331864 C28.3069809,52.3140847 28.8909605,51.7309887 29.6119043,51.7309887 C30.3320957,51.7309887 30.9160753,52.3140847 30.9160753,53.0331864" id="Fill-50" fill="#231F20"></path>
                    <path d="M104.741406,11.4301853 C104.741406,11.4301853 111.613702,8.02252994 99.5608444,6.56253559 C104.741406,-0.252023729 111.190768,4.81024181 111.190768,4.81024181 C111.190768,4.81024181 113.72837,-2.75122147 124.513179,1.50027006 C118.169173,3.34949605 119.226508,5.6863887 119.226508,5.6863887 C119.226508,5.6863887 124.090245,4.81024181 123.878778,11.8194169 C117.74624,7.14638305 119.790168,15.616304 119.790168,15.616304" id="Fill-52" fill="#231F20"></path>
                    <path d="M159.314223,28.7697785 C160.363279,28.7697785 161.37245,28.5398463 162.340983,28.0807333 C163.308764,27.6223718 164.087654,26.9994508 164.678407,26.2134734 C165.269159,25.427496 165.564912,24.5761458 165.564912,23.6586712 C165.564912,22.0529028 164.974159,20.7176429 163.792654,19.6521401 C162.611902,18.5888915 161.232476,18.0553887 159.658892,18.0553887 C158.673802,18.0553887 157.721073,18.3011006 156.803713,18.7925243 L157.000129,28.3264452 C157.754937,28.6217503 158.52555,28.7697785 159.314223,28.7697785 M167.04217,11.4700102 C169.567731,12.6820384 171.595103,14.3531797 173.120524,16.4819311 C174.645945,18.6129367 175.409032,21.0039311 175.409032,23.6586712 C175.409032,26.1811627 174.736251,28.5075356 173.39069,30.6370384 C172.045881,32.7672927 170.199874,34.4534621 167.85342,35.6985525 C165.506966,36.9443944 162.938509,37.5658124 160.15106,37.5658124 C159.264555,37.5658124 158.279466,37.4854113 157.19805,37.3201006 L157.442629,47.1989198 L147.598509,47.1989198 L146.614925,13.041965 C151.0768,10.780965 155.179708,9.65084068 158.919886,9.65084068 C161.807425,9.65084068 164.514351,10.2572305 167.04217,11.4700102" id="Fill-54" fill="#231F20"></path>
                    <polygon id="Fill-56" fill="#231F20" points="203.562568 36.7801356 203.562568 46.6093616 177.573971 47.1992203 176.294634 9.84725989 202.283231 9.01168927 202.971815 18.8409153 186.335922 19.0385367 186.532338 22.9210847 200.363473 22.6250282 200.855642 32.4542542 187.123091 32.7503107 187.369175 37.4195876"></polygon>
                    <polygon id="Fill-58" fill="#231F20" points="227.581814 37.4679785 227.581814 47.2972045 204.447643 47.2972045 204.447643 9.84756045 214.291763 9.84756045 214.291763 37.4679785"></polygon>
                    <path d="M249.904434,36.4846051 C251.364383,35.6663169 252.529332,34.5527237 253.400033,33.1438254 C254.26923,31.7341757 254.703452,30.1629723 254.703452,28.424204 C254.703452,26.7222548 254.26923,25.1818593 253.400033,23.8045203 C252.529332,22.4294356 251.35761,21.3556672 249.880352,20.5862209 C248.404599,19.8160232 246.763286,19.4305486 244.958668,19.4305486 C243.251883,19.4305486 241.701628,19.8160232 240.306398,20.5862209 C238.911168,21.3556672 237.821474,22.4211701 237.032801,23.7804751 C236.246385,25.1412831 235.852048,26.6726616 235.852048,28.3761136 C235.852048,30.1456898 236.253911,31.7424412 237.058388,33.1678706 C237.862112,34.5933 238.960837,35.7068932 240.356066,36.5101531 C241.749791,37.313413 243.333911,37.7139158 245.105416,37.7139158 C246.845314,37.7139158 248.444485,37.304396 249.904434,36.4846051 M235.852048,44.8643565 C232.866679,43.0790006 230.478082,40.7203169 228.69002,37.7875542 C226.902712,34.8547915 226.007929,31.7341757 226.007929,28.424204 C226.007929,25.115735 226.902712,22.0116503 228.69002,19.1127011 C230.478082,16.2122492 232.866679,13.9031588 235.852048,12.1824243 C238.837418,10.4624412 242.020709,9.6013226 245.401168,9.6013226 C248.748515,9.6013226 251.897941,10.4624412 254.851704,12.1824243 C257.804714,13.9031588 260.158694,16.2039836 261.914395,19.0871531 C263.670097,21.971074 264.549077,25.0834243 264.549077,28.424204 C264.549077,31.8003 263.670097,34.9547294 261.914395,37.8859893 C260.158694,40.8180006 257.804714,43.1609045 254.851704,44.9139497 C251.897941,46.6669949 248.748515,47.5431418 245.401168,47.5431418 C242.020709,47.5431418 238.837418,46.6512153 235.852048,44.8643565" id="Fill-60" fill="#231F20"></path>
                    <path d="M270.011242,45.8478051 C267.353985,44.6846186 265.170834,43.136709 263.464801,41.2040763 L270.109074,33.9296525 C271.160388,35.1093701 272.398334,36.0343588 273.825171,36.7061215 C275.25276,37.3778842 276.688628,37.7137655 278.133526,37.7137655 C279.445222,37.7137655 280.512339,37.4680537 281.33262,36.9766299 C282.152148,36.4844548 282.562288,35.9126299 282.562288,35.2566469 C282.562288,34.6014153 282.169457,34.1257712 281.380783,33.8312175 C280.594367,33.5359124 279.576918,33.389387 278.329941,33.389387 C275.901459,33.389387 273.661115,32.8814322 271.611166,31.8647712 C269.560464,30.8503644 267.919151,29.4497316 266.689482,27.6628729 C265.458309,25.8775169 264.843474,23.8719972 264.843474,21.6433079 C264.843474,19.3499972 265.48239,17.2851158 266.76248,15.4501667 C268.042569,13.6152175 269.765158,12.1740085 271.931,11.1250367 C274.096842,10.0768164 276.459852,9.55308192 279.018526,9.55308192 C281.611064,9.55308192 284.13813,10.0527712 286.598219,11.0521497 C289.060566,12.0515282 291.225656,13.4852232 293.096497,15.3524831 L287.53364,22.8711158 C284.449686,20.6101158 281.529036,19.4807429 278.772441,19.4807429 C277.558577,19.4807429 276.508015,19.6941441 275.623015,20.1201949 C274.73651,20.5454944 274.293258,21.0534492 274.293258,21.6433079 C274.293258,22.2654774 274.818538,22.7328559 275.869099,23.0431893 C276.918156,23.3550254 278.165885,23.5105678 279.609278,23.5105678 C282.234176,23.5105678 284.58063,23.9200876 286.64864,24.7398785 C288.715145,25.5581667 290.339903,26.7709463 291.521408,28.3759633 C292.702161,29.9817316 293.292913,31.9323983 293.292913,34.2234548 C293.292913,36.6820763 292.594546,38.9348107 291.200821,40.9824096 C289.805592,43.0307599 287.943781,44.6440424 285.615388,45.8237599 C283.284737,47.002726 280.758423,47.5925847 278.033436,47.5925847 C275.343066,47.5925847 272.670005,47.0109915 270.011242,45.8478051" id="Fill-62" fill="#231F20"></path>
                    <path d="M169.707329,95.8688045 C171.417125,94.5831379 172.27127,93.0006633 172.27127,91.119878 C172.27127,89.5869966 171.627087,88.3501718 170.339472,87.4094034 C169.051105,86.4708893 167.466232,86.0005051 165.583349,86.0005051 C163.700467,86.0005051 161.989918,86.421296 160.456219,87.2621266 L160.456219,97.2040644 C161.396908,97.6000588 162.412852,97.7976802 163.502546,97.7976802 C165.929523,97.7976802 167.999038,97.155974 169.707329,95.8688045 M168.072788,65.4471209 C167.007176,64.6062904 165.632265,64.1854994 163.948809,64.1854994 C162.71011,64.1854994 161.545161,64.4582621 160.456219,65.0022847 L160.456219,73.4601831 C161.049982,73.6593073 161.767916,73.756991 162.610773,73.756991 C164.442482,73.756991 166.077776,73.2640644 167.515901,72.2729514 C168.951015,71.2840927 169.671207,70.0976124 169.671207,68.7112565 C169.671207,67.3759966 169.136895,66.2894542 168.072788,65.4471209 M176.506628,78.8027254 C178.686768,78.8027254 180.656194,79.4218893 182.414153,80.6579627 C184.172865,81.895539 185.573362,83.6147706 186.613388,85.8149062 C187.653413,88.0165446 188.174179,90.4781718 188.174179,93.1982847 C188.174179,98.8361322 185.647112,103.029014 180.594485,105.774675 C175.541105,108.518833 167.787571,109.892415 157.33539,109.892415 L146.039599,109.892415 L146.336857,55.8756294 C148.120403,54.7875842 150.857431,54.0331661 154.547189,53.6123751 C158.237699,53.193087 161.743834,52.9826915 165.063337,52.9826915 C168.134497,52.9826915 171.08224,53.5748045 173.906564,54.7620362 C176.730135,55.9500192 179.021653,57.5580418 180.779612,59.5846011 C182.538324,61.6149175 183.418056,63.8646463 183.418056,66.3375446 C183.418056,69.3552169 182.637661,72.0768328 181.07687,74.5001379 C179.516832,76.9234429 177.472903,78.3834373 174.946589,78.8771153 C175.29201,78.8282734 175.812776,78.8027254 176.506628,78.8027254" id="Fill-64" fill="#231F20"></path>
                    <path d="M224.10262,93.6428203 C226.306089,92.4067469 228.066306,90.7250859 229.379508,88.5970859 C230.691204,86.4705887 231.348934,84.0968768 231.348934,81.4744475 C231.348934,78.9023627 230.691204,76.5767412 229.379508,74.4998373 C228.066306,72.4221819 226.295554,70.8021367 224.066497,69.6397017 C221.836689,68.4780181 219.358538,67.8964249 216.634304,67.8964249 C214.058321,67.8964249 211.717135,68.4780181 209.613003,69.6397017 C207.50586,70.8021367 205.859278,72.4101593 204.671,74.4622667 C203.481969,76.5151254 202.887454,78.8287243 202.887454,81.3993062 C202.887454,84.0713288 203.492505,86.4826113 204.707875,88.6346565 C205.920987,90.7851989 207.57961,92.4691141 209.686753,93.680391 C211.79239,94.8924192 214.183245,95.4980576 216.857811,95.4980576 C219.482709,95.4980576 221.897645,94.8803966 224.10262,93.6428203 M202.887454,106.292849 C198.378921,103.598284 194.774202,100.03734 192.074048,95.6092667 C189.373895,91.1834475 188.024571,86.4705887 188.024571,81.4744475 C188.024571,76.4790576 189.373895,71.7902441 192.074048,67.4140181 C194.774202,63.0362893 198.378921,59.5482328 202.887454,56.9521028 C207.394482,54.3537186 212.200273,53.0560294 217.303321,53.0560294 C222.355949,53.0560294 227.112071,54.3537186 231.570936,56.9521028 C236.029801,59.5482328 239.584099,63.0235153 242.234584,67.3764475 C244.885069,71.7301311 246.210311,76.4294644 246.210311,81.4744475 C246.210311,86.5697751 244.885069,91.3307243 242.234584,95.7572949 C239.584099,100.184617 236.029801,103.722267 231.570936,106.368741 C227.112071,109.014464 222.355949,110.337702 217.303321,110.337702 C212.200273,110.337702 207.394482,108.990419 202.887454,106.292849" id="Fill-66" fill="#231F20"></path>
                    <polygon id="Fill-68" fill="#231F20" points="279.652249 111.450318 267.837198 95.0522446 255.351624 111.450318 241.604774 102.026855 257.730437 81.1030243 243.611075 61.5888435 256.244149 53.3533633 267.53994 68.3410356 279.428741 52.8333859 293.101841 61.8105102 277.7942 81.9198096 293.919864 103.363618"></polygon>
                    <path d="M145.752727,123.715097 C145.596949,123.568572 145.518684,123.395747 145.518684,123.196623 C145.518684,122.997498 145.596949,122.826928 145.752727,122.684911 C145.908505,122.542142 146.104921,122.47151 146.338964,122.47151 C146.554946,122.47151 146.743084,122.542142 146.90413,122.684911 C147.065929,122.826928 147.146452,122.997498 147.146452,123.196623 C147.146452,123.395747 147.065929,123.568572 146.90413,123.715097 C146.743084,123.863125 146.554946,123.935261 146.338964,123.935261 C146.104921,123.935261 145.908505,123.863125 145.752727,123.715097" id="Fill-70" fill="#231F20"></path>
                    <path d="M150.668767,126.213769 C150.668767,126.080769 150.714672,125.942509 150.808741,125.801244 C150.90281,125.659227 151.018703,125.587842 151.153409,125.587842 C151.233932,125.587842 151.343805,125.640441 151.4898,125.744888 C151.632032,125.848582 151.82318,125.953029 152.065501,126.058227 C152.307823,126.16117 152.600565,126.213769 152.939966,126.213769 C153.701547,126.213769 154.083091,125.971814 154.083091,125.489407 C154.083091,125.23017 153.973218,125.027289 153.74971,124.880012 C153.526203,124.733486 153.257542,124.616266 152.942223,124.532108 C152.627657,124.447198 152.313091,124.350266 152.00304,124.244317 C151.691483,124.136865 151.42508,123.952769 151.201573,123.695034 C150.978065,123.435797 150.868193,123.099916 150.868193,122.688893 C150.868193,122.167413 151.05332,121.71882 151.427338,121.343114 C151.801356,120.966656 152.3748,120.778803 153.149927,120.778803 C153.655642,120.778803 154.11545,120.856198 154.530106,121.012492 C154.944761,121.168034 155.151713,121.352131 155.151713,121.56478 C155.151713,121.689515 155.10054,121.833034 154.998193,121.998345 C154.895846,122.162153 154.767159,122.244057 154.615897,122.244057 C154.562466,122.244057 154.381853,122.177181 154.069545,122.044181 C153.757989,121.911181 153.461483,121.845057 153.176267,121.845057 C152.821062,121.845057 152.552402,121.925458 152.369532,122.085509 C152.186662,122.247063 152.094851,122.425147 152.094851,122.622018 C152.094851,122.836921 152.205476,123.005989 152.428231,123.130724 C152.651739,123.256961 152.923409,123.359153 153.243996,123.439554 C153.56383,123.520707 153.879149,123.61839 154.188448,123.734108 C154.500756,123.850577 154.764149,124.051204 154.982389,124.336741 C155.199876,124.623029 155.310501,124.989718 155.310501,125.436057 C155.310501,126.010888 155.105807,126.462486 154.697172,126.788599 C154.287784,127.116215 153.709073,127.279272 152.961037,127.279272 C152.331904,127.279272 151.79082,127.168814 151.341547,126.945645 C150.892274,126.723978 150.668767,126.479769 150.668767,126.213769" id="Fill-72" fill="#231F20"></path>
                    <path d="M157.605556,124.624532 C157.605556,124.985961 157.737253,125.311323 158.006666,125.596859 C158.273069,125.88465 158.592903,126.026667 158.966921,126.026667 C159.330403,126.026667 159.64798,125.88465 159.919651,125.596859 C160.191321,125.311323 160.326028,124.985961 160.326028,124.624532 L160.326028,123.407244 C160.326028,123.05408 160.191321,122.736984 159.919651,122.455204 C159.64798,122.172673 159.330403,122.030656 158.966921,122.030656 C158.592903,122.030656 158.273069,122.172673 158.006666,122.455204 C157.737253,122.736984 157.605556,123.05408 157.605556,123.407244 L157.605556,124.624532 Z M156.203554,124.628289 L156.203554,123.403486 C156.203554,122.702419 156.475224,122.088515 157.019319,121.564029 C157.559651,121.040294 158.21136,120.778803 158.966921,120.778803 C159.704421,120.778803 160.347099,121.038792 160.898719,121.558018 C161.450339,122.077244 161.728031,122.69265 161.728031,123.403486 L161.728031,124.628289 C161.728031,125.321842 161.450339,125.937249 160.893452,126.473006 C160.336564,127.010266 159.696143,127.279272 158.966921,127.279272 C158.227163,127.279272 157.583732,127.013272 157.032112,126.479769 C156.480492,125.947769 156.203554,125.330108 156.203554,124.628289 L156.203554,124.628289 Z" id="Fill-74" fill="#231F20"></path>
                    <path d="M162.954839,126.706771 L162.954839,121.311629 C162.954839,121.178629 163.019559,121.070426 163.148245,120.985516 C163.277684,120.900607 163.439482,120.859279 163.635898,120.859279 C163.8135,120.859279 163.96401,120.90211 164.087429,120.987019 C164.213857,121.07268 164.276319,121.183138 164.276319,121.316889 L164.276319,121.909754 C164.426829,121.595663 164.655605,121.329663 164.961893,121.108748 C165.268934,120.888584 165.605324,120.778878 165.968806,120.778878 L166.396255,120.778878 C166.53924,120.778878 166.662658,120.840494 166.770273,120.961471 C166.877888,121.082449 166.929061,121.228223 166.929061,121.398042 C166.929061,121.568612 166.877888,121.717392 166.770273,121.842127 C166.662658,121.969115 166.53924,122.030731 166.396255,122.030731 L165.968806,122.030731 C165.543615,122.030731 165.166587,122.213324 164.840732,122.576256 C164.517888,122.938437 164.356842,123.408821 164.356842,123.983652 L164.356842,126.708273 C164.356842,126.823991 164.283844,126.92994 164.141612,127.026121 C163.998628,127.124556 163.829304,127.172646 163.635898,127.172646 C163.439482,127.172646 163.277684,127.124556 163.148245,127.026121 C163.019559,126.928437 162.954839,126.822488 162.954839,126.706771" id="Fill-76" fill="#231F20"></path>
                    <path d="M169.170534,124.92953 C169.170534,125.122643 169.305241,125.355581 169.576912,125.623835 C169.848583,125.892841 170.163149,126.027344 170.518353,126.027344 C170.873557,126.027344 171.188876,125.884575 171.465815,125.597536 C171.740496,125.311247 171.87746,124.985886 171.87746,124.624456 L171.87746,123.407168 C171.87746,123.054005 171.740496,122.736908 171.465815,122.455129 C171.188876,122.172598 170.866032,122.030581 170.492014,122.030581 C170.144335,122.030581 169.838047,122.156818 169.571644,122.40779 C169.305241,122.659513 169.170534,122.992389 169.170534,123.407168 L169.170534,124.92953 Z M167.768532,129.704005 L167.768532,121.312231 C167.768532,121.179231 167.833251,121.070276 167.96269,120.985366 C168.091376,120.900456 168.250165,120.859129 168.436045,120.859129 C168.624182,120.859129 168.780713,120.901959 168.904131,120.986869 C169.02755,121.07253 169.090011,121.182988 169.090011,121.31749 L169.090011,121.802151 C169.251057,121.51436 169.488111,121.273157 169.802677,121.075536 C170.120254,120.877914 170.478468,120.778728 170.878825,120.778728 C171.546338,120.778728 172.111504,121.036462 172.579591,121.55118 C173.04542,122.066649 173.279463,122.683558 173.279463,123.403411 L173.279463,124.628965 C173.279463,125.321767 173.042409,125.937174 172.571312,126.472931 C172.100968,127.010191 171.554616,127.279197 170.929999,127.279197 C170.548455,127.279197 170.195509,127.175502 169.870407,126.970366 C169.547562,126.762976 169.312767,126.515762 169.170534,126.230225 L169.170534,129.702502 C169.170534,129.827236 169.097537,129.936191 168.958315,130.030118 C168.81533,130.123293 168.646006,130.16988 168.449591,130.16988 C168.255432,130.16988 168.091376,130.123293 167.96269,130.030118 C167.833251,129.937694 167.768532,129.828739 167.768532,129.704005 L167.768532,129.704005 Z" id="Fill-78" fill="#231F20"></path>
                    <path d="M174.506272,126.706771 L174.506272,121.311629 C174.506272,121.178629 174.570991,121.070426 174.699677,120.985516 C174.829116,120.900607 174.993172,120.859279 175.18733,120.859279 C175.364932,120.859279 175.5177,120.90211 175.641871,120.987019 C175.76529,121.07268 175.827751,121.183138 175.827751,121.316889 L175.827751,121.909754 C175.978261,121.595663 176.209295,121.329663 176.516335,121.108748 C176.823376,120.888584 177.156756,120.778878 177.522496,120.778878 L177.950698,120.778878 C178.090672,120.778878 178.217101,120.840494 178.321705,120.961471 C178.42932,121.082449 178.483504,121.228223 178.483504,121.398042 C178.483504,121.568612 178.42932,121.717392 178.321705,121.842127 C178.217101,121.969115 178.090672,122.030731 177.950698,122.030731 L177.522496,122.030731 C177.095047,122.030731 176.721029,122.213324 176.395175,122.576256 C176.06932,122.938437 175.908274,123.408821 175.908274,123.983652 L175.908274,126.708273 C175.908274,126.823991 175.838287,126.92994 175.695302,127.026121 C175.55307,127.124556 175.383746,127.172646 175.18733,127.172646 C174.993172,127.172646 174.829116,127.124556 174.699677,127.026121 C174.570991,126.928437 174.506272,126.822488 174.506272,126.706771" id="Fill-80" fill="#231F20"></path>
                    <path d="M180.310321,123.496136 L182.525079,123.496136 C182.718485,123.496136 182.850181,123.470588 182.917911,123.417989 C182.984888,123.366141 183.017247,123.259441 183.017247,123.102395 C183.017247,122.752989 182.887809,122.456181 182.629684,122.211972 C182.373816,121.967763 182.053982,121.845282 181.671686,121.845282 C181.297668,121.845282 180.977834,121.961 180.711431,122.191684 C180.442018,122.42387 180.310321,122.718424 180.310321,123.076847 L180.310321,123.496136 Z M178.908319,124.628514 L178.908319,123.363136 C178.908319,122.662068 179.17999,122.056429 179.724084,121.543966 C180.264416,121.033757 180.918383,120.778277 181.682974,120.778277 C182.411444,120.778277 183.039071,121.009712 183.558332,121.471831 C184.077592,121.933949 184.338727,122.517045 184.338727,123.220367 C184.338727,123.492379 184.306367,123.712542 184.243906,123.879356 C184.182196,124.046921 184.085117,124.164893 183.951163,124.23252 C183.819467,124.300898 183.692286,124.343729 183.579403,124.361011 C183.464263,124.379797 183.310742,124.389565 183.124862,124.389565 L180.310321,124.389565 L180.310321,124.696893 C180.310321,125.144734 180.46911,125.500153 180.788944,125.765401 C181.109531,126.028395 181.529454,126.159893 182.043446,126.159893 C182.409186,126.159893 182.753855,126.075734 183.078957,125.905915 C183.401801,125.735345 183.601227,125.651186 183.671214,125.651186 C183.821724,125.651186 183.951163,125.721819 184.058778,125.864588 C184.166393,126.006605 184.217566,126.144864 184.217566,126.279367 C184.217566,126.49878 184.004594,126.720446 183.579403,126.942864 C183.151954,127.167537 182.627426,127.278746 182.002809,127.278746 C181.095985,127.278746 180.353217,127.03604 179.774505,126.54687 C179.198804,126.057701 178.908319,125.418249 178.908319,124.628514 L178.908319,124.628514 Z" id="Fill-82" fill="#231F20"></path>
                    <path d="M185.072991,126.213769 C185.072991,126.080769 185.121154,125.942509 185.215223,125.801244 C185.310045,125.659227 185.422927,125.587842 185.557634,125.587842 C185.638157,125.587842 185.75104,125.640441 185.894024,125.744888 C186.036256,125.848582 186.229662,125.953029 186.471983,126.058227 C186.714305,126.16117 187.00479,126.213769 187.346448,126.213769 C188.108029,126.213769 188.487315,125.971814 188.487315,125.489407 C188.487315,125.23017 188.377443,125.027289 188.156945,124.880012 C187.933437,124.733486 187.664024,124.616266 187.349458,124.532108 C187.031881,124.447198 186.719573,124.350266 186.407264,124.244317 C186.095708,124.136865 185.829305,123.952769 185.608807,123.695034 C185.3853,123.435797 185.274675,123.099916 185.274675,122.688893 C185.274675,122.167413 185.460555,121.71882 185.834573,121.343114 C186.208591,120.966656 186.781282,120.778803 187.554152,120.778803 C188.062124,120.778803 188.522685,120.856198 188.936588,121.012492 C189.348986,121.168034 189.555937,121.352131 189.555937,121.56478 C189.555937,121.689515 189.504764,121.833034 189.402417,121.998345 C189.30007,122.162153 189.173642,122.244057 189.023131,122.244057 C188.968948,122.244057 188.786078,122.177181 188.473769,122.044181 C188.164471,121.911181 187.865708,121.845057 187.580491,121.845057 C187.225287,121.845057 186.956626,121.925458 186.773756,122.085509 C186.593144,122.247063 186.502085,122.425147 186.502085,122.622018 C186.502085,122.836921 186.611958,123.005989 186.835466,123.130724 C187.055963,123.256961 187.327634,123.359153 187.648221,123.439554 C187.968055,123.520707 188.283374,123.61839 188.59493,123.734108 C188.904981,123.850577 189.168374,124.051204 189.388871,124.336741 C189.607111,124.623029 189.716983,124.989718 189.716983,125.436057 C189.716983,126.010888 189.513042,126.462486 189.103654,126.788599 C188.692009,127.116215 188.116307,127.279272 187.368272,127.279272 C186.736129,127.279272 186.195045,127.168814 185.748029,126.945645 C185.298756,126.723978 185.072991,126.479769 185.072991,126.213769" id="Fill-84" fill="#231F20"></path>
                    <path d="M191.877934,125.348593 C191.877934,125.631875 191.956199,125.846779 192.117245,125.993305 C192.276033,126.141333 192.485995,126.213468 192.74412,126.213468 C193.08352,126.213468 193.403355,126.071451 193.710395,125.788169 C194.019694,125.503384 194.173214,125.200564 194.173214,124.881214 L194.173214,124.38979 L193.839834,124.38979 C193.438724,124.38979 193.110612,124.407073 192.857003,124.441638 C192.604145,124.478457 192.37838,124.570881 192.176696,124.721163 C191.97727,124.872949 191.877934,125.08109 191.877934,125.348593 M190.462385,125.520666 C190.462385,124.811333 190.728788,124.315401 191.264605,124.035875 C191.797411,123.757101 192.572538,123.615836 193.583967,123.615836 L194.173214,123.615836 L194.173214,123.370875 C194.173214,122.971124 194.062589,122.625474 193.845102,122.333926 C193.626862,122.043881 193.29574,121.897355 192.851735,121.897355 C192.470191,121.897355 192.133801,121.971745 191.843316,122.117519 C191.555089,122.264045 191.396301,122.336932 191.369209,122.336932 C191.218699,122.336932 191.097538,122.264045 191.003469,122.117519 C190.909401,121.971745 190.863495,121.808689 190.863495,121.631355 C190.863495,121.400672 191.078724,121.200045 191.509184,121.03248 C191.942653,120.863412 192.397194,120.778502 192.878827,120.778502 C193.793929,120.778502 194.471977,121.025717 194.912972,121.518644 C195.351709,122.01157 195.572207,122.625474 195.572207,123.363361 L195.572207,126.706395 C195.572207,126.831881 195.507487,126.939333 195.378801,127.033259 C195.249362,127.125683 195.088316,127.173022 194.891901,127.173022 C194.714298,127.173022 194.563036,127.125683 194.439617,127.033259 C194.313189,126.939333 194.25148,126.831881 194.25148,126.706395 L194.25148,126.240519 C193.656212,126.934073 192.984184,127.278971 192.238406,127.278971 C191.722156,127.278971 191.296964,127.128689 190.962832,126.826621 C190.629452,126.525305 190.462385,126.090237 190.462385,125.520666" id="Fill-86" fill="#231F20"></path>
                    <path d="M196.600267,126.213769 C196.600267,126.080769 196.646172,125.942509 196.740241,125.801244 C196.83431,125.659227 196.950203,125.587842 197.084909,125.587842 C197.165432,125.587842 197.275305,125.640441 197.4213,125.744888 C197.563532,125.848582 197.75468,125.953029 197.997001,126.058227 C198.23857,126.16117 198.532065,126.213769 198.871466,126.213769 C199.633047,126.213769 200.014591,125.971814 200.014591,125.489407 C200.014591,125.23017 199.904718,125.027289 199.68121,124.880012 C199.457703,124.733486 199.189042,124.616266 198.873723,124.532108 C198.559157,124.447198 198.244591,124.350266 197.93454,124.244317 C197.622983,124.136865 197.35658,123.952769 197.133073,123.695034 C196.909565,123.435797 196.799693,123.099916 196.799693,122.688893 C196.799693,122.167413 196.98482,121.71882 197.358838,121.343114 C197.732856,120.966656 198.3063,120.778803 199.081427,120.778803 C199.587142,120.778803 200.04695,120.856198 200.461606,121.012492 C200.876261,121.168034 201.083213,121.352131 201.083213,121.56478 C201.083213,121.689515 201.03204,121.833034 200.929693,121.998345 C200.827346,122.162153 200.698659,122.244057 200.547397,122.244057 C200.493966,122.244057 200.313353,122.177181 200.001045,122.044181 C199.689489,121.911181 199.392983,121.845057 199.107767,121.845057 C198.752562,121.845057 198.483902,121.925458 198.301032,122.085509 C198.118162,122.247063 198.026351,122.425147 198.026351,122.622018 C198.026351,122.836921 198.136976,123.005989 198.359731,123.130724 C198.583239,123.256961 198.854909,123.359153 199.175496,123.439554 C199.49533,123.520707 199.810649,123.61839 200.119948,123.734108 C200.432256,123.850577 200.695649,124.051204 200.913889,124.336741 C201.131376,124.623029 201.242001,124.989718 201.242001,125.436057 C201.242001,126.010888 201.037307,126.462486 200.628672,126.788599 C200.219284,127.116215 199.640573,127.279272 198.892537,127.279272 C198.263404,127.279272 197.72232,127.168814 197.273047,126.945645 C196.823774,126.723978 196.600267,126.479769 196.600267,126.213769" id="Fill-88" fill="#231F20"></path>
                    <path d="M206.469973,124.92953 C206.469973,125.122643 206.606937,125.355581 206.878608,125.623835 C207.148022,125.892841 207.462588,126.027344 207.817792,126.027344 C208.172996,126.027344 208.490573,125.884575 208.765254,125.597536 C209.042193,125.311247 209.179909,124.985886 209.179909,124.624456 L209.179909,123.407168 C209.179909,123.054005 209.042193,122.736908 208.765254,122.455129 C208.490573,122.172598 208.165471,122.030581 207.791453,122.030581 C207.443774,122.030581 207.137486,122.156818 206.871083,122.40779 C206.60468,122.659513 206.469973,122.992389 206.469973,123.407168 L206.469973,124.92953 Z M205.070981,129.704005 L205.070981,121.312231 C205.070981,121.179231 205.1357,121.070276 205.264386,120.985366 C205.393825,120.900456 205.549603,120.859129 205.737741,120.859129 C205.923621,120.859129 206.080152,120.901959 206.20357,120.986869 C206.329999,121.07253 206.391708,121.182988 206.391708,121.31749 L206.391708,121.802151 C206.550496,121.51436 206.79056,121.273157 207.105126,121.075536 C207.419693,120.877914 207.777907,120.778728 208.178264,120.778728 C208.845777,120.778728 209.413953,121.036462 209.879029,121.55118 C210.347116,122.066649 210.581159,122.683558 210.581159,123.403411 L210.581159,124.628965 C210.581159,125.321767 210.344858,125.937174 209.873761,126.472931 C209.402665,127.010191 208.854055,127.279197 208.232448,127.279197 C207.850152,127.279197 207.494948,127.175502 207.172103,126.970366 C206.847001,126.762976 206.612958,126.515762 206.469973,126.230225 L206.469973,129.702502 C206.469973,129.827236 206.399986,129.936191 206.257754,130.030118 C206.114769,130.123293 205.945445,130.16988 205.751287,130.16988 C205.554871,130.16988 205.393825,130.123293 205.264386,130.030118 C205.1357,129.937694 205.070981,129.828739 205.070981,129.704005 L205.070981,129.704005 Z" id="Fill-90" fill="#231F20"></path>
                    <path d="M212.820224,125.348593 C212.820224,125.631875 212.900747,125.846779 213.059536,125.993305 C213.221334,126.141333 213.431296,126.213468 213.689421,126.213468 C214.025811,126.213468 214.348656,126.071451 214.655696,125.788169 C214.961985,125.503384 215.115505,125.200564 215.115505,124.881214 L215.115505,124.38979 L214.782125,124.38979 C214.381015,124.38979 214.055161,124.407073 213.802304,124.441638 C213.546436,124.478457 213.320671,124.570881 213.121245,124.721163 C212.919561,124.872949 212.820224,125.08109 212.820224,125.348593 M211.407686,125.520666 C211.407686,124.811333 211.674089,124.315401 212.206895,124.035875 C212.741959,123.757101 213.514077,123.615836 214.528515,123.615836 L215.115505,123.615836 L215.115505,123.370875 C215.115505,122.971124 215.00789,122.625474 214.789651,122.333926 C214.572163,122.043881 214.238031,121.897355 213.794026,121.897355 C213.412482,121.897355 213.076092,121.971745 212.787865,122.117519 C212.49738,122.264045 212.341602,122.336932 212.31451,122.336932 C212.164,122.336932 212.039829,122.264045 211.94576,122.117519 C211.853949,121.971745 211.805786,121.808689 211.805786,121.631355 C211.805786,121.400672 212.024026,121.200045 212.454485,121.03248 C212.884944,120.863412 213.342495,120.778502 213.821117,120.778502 C214.736219,120.778502 215.416526,121.025717 215.855263,121.518644 C216.29701,122.01157 216.517508,122.625474 216.517508,123.363361 L216.517508,126.706395 C216.517508,126.831881 216.452788,126.939333 216.323349,127.033259 C216.194663,127.125683 216.030607,127.173022 215.836449,127.173022 C215.658847,127.173022 215.505327,127.125683 215.381908,127.033259 C215.257737,126.939333 215.196028,126.831881 215.196028,126.706395 L215.196028,126.240519 C214.598503,126.934073 213.928732,127.278971 213.180696,127.278971 C212.664446,127.278971 212.241513,127.128689 211.908133,126.826621 C211.574753,126.525305 211.407686,126.090237 211.407686,125.520666" id="Fill-92" fill="#231F20"></path>
                    <path d="M217.943441,126.706771 L217.943441,121.311629 C217.943441,121.178629 218.008161,121.070426 218.136847,120.985516 C218.266286,120.900607 218.430342,120.859279 218.6245,120.859279 C218.802102,120.859279 218.95487,120.90211 219.079041,120.987019 C219.202459,121.07268 219.264921,121.183138 219.264921,121.316889 L219.264921,121.909754 C219.415431,121.595663 219.646464,121.329663 219.953505,121.108748 C220.260546,120.888584 220.593926,120.778878 220.959666,120.778878 L221.387867,120.778878 C221.527842,120.778878 221.65427,120.840494 221.758875,120.961471 C221.86649,121.082449 221.920673,121.228223 221.920673,121.398042 C221.920673,121.568612 221.86649,121.717392 221.758875,121.842127 C221.65427,121.969115 221.527842,122.030731 221.387867,122.030731 L220.959666,122.030731 C220.532217,122.030731 220.158199,122.213324 219.832344,122.576256 C219.50649,122.938437 219.345444,123.408821 219.345444,123.983652 L219.345444,126.708273 C219.345444,126.823991 219.275457,126.92994 219.132472,127.026121 C218.99024,127.124556 218.820916,127.172646 218.6245,127.172646 C218.430342,127.172646 218.266286,127.124556 218.136847,127.026121 C218.008161,126.928437 217.943441,126.822488 217.943441,126.706771" id="Fill-94" fill="#231F20"></path>
                    <path d="M223.760886,125.348593 C223.760886,125.631875 223.839152,125.846779 224.000198,125.993305 C224.158986,126.141333 224.368948,126.213468 224.627073,126.213468 C224.966473,126.213468 225.286307,126.071451 225.593348,125.788169 C225.902647,125.503384 226.056167,125.200564 226.056167,124.881214 L226.056167,124.38979 L225.722787,124.38979 C225.321677,124.38979 224.993565,124.407073 224.740708,124.441638 C224.487098,124.478457 224.261333,124.570881 224.059649,124.721163 C223.860223,124.872949 223.760886,125.08109 223.760886,125.348593 M222.345338,125.520666 C222.345338,124.811333 222.611741,124.315401 223.147557,124.035875 C223.680364,123.757101 224.455491,123.615836 225.46692,123.615836 L226.056167,123.615836 L226.056167,123.370875 C226.056167,122.971124 225.945542,122.625474 225.728055,122.333926 C225.509815,122.043881 225.178693,121.897355 224.734687,121.897355 C224.353144,121.897355 224.016754,121.971745 223.726269,122.117519 C223.438042,122.264045 223.279254,122.336932 223.252162,122.336932 C223.101652,122.336932 222.980491,122.264045 222.886422,122.117519 C222.792353,121.971745 222.746448,121.808689 222.746448,121.631355 C222.746448,121.400672 222.961677,121.200045 223.392136,121.03248 C223.825606,120.863412 224.280147,120.778502 224.761779,120.778502 C225.676881,120.778502 226.35493,121.025717 226.795925,121.518644 C227.234662,122.01157 227.455159,122.625474 227.455159,123.363361 L227.455159,126.706395 C227.455159,126.831881 227.39044,126.939333 227.261754,127.033259 C227.132315,127.125683 226.971269,127.173022 226.774853,127.173022 C226.597251,127.173022 226.445989,127.125683 226.32257,127.033259 C226.196142,126.939333 226.134432,126.831881 226.134432,126.706395 L226.134432,126.240519 C225.539165,126.934073 224.867136,127.278971 224.121358,127.278971 C223.605108,127.278971 223.179917,127.128689 222.845784,126.826621 C222.512404,126.525305 222.345338,126.090237 222.345338,125.520666" id="Fill-96" fill="#231F20"></path>
                    <path d="M231.537222,125.09469 L231.537222,118.420645 C231.537222,118.297414 231.610219,118.189962 231.752452,118.101295 C231.895436,118.012628 232.053472,117.968295 232.231074,117.968295 C232.408676,117.968295 232.573485,118.012628 232.718727,118.101295 C232.866227,118.189962 232.939224,118.297414 232.939224,118.420645 L232.939224,120.858979 L234.566992,120.858979 C234.682885,120.858979 234.776954,120.910075 234.846941,121.012267 C234.916929,121.114459 234.954556,121.236939 234.954556,121.378956 C234.954556,121.520221 234.916929,121.64195 234.846941,121.744142 C234.776954,121.846334 234.682885,121.897431 234.566992,121.897431 L232.939224,121.897431 L232.939224,125.09469 C232.939224,125.414041 233.009212,125.641719 233.146176,125.774719 C233.283893,125.907719 233.525462,125.974594 233.87314,125.974594 L234.341227,125.974594 C234.526355,125.974594 234.674607,126.032453 234.779964,126.146668 C234.887579,126.262385 234.94101,126.404402 234.94101,126.57347 C234.94101,126.741786 234.887579,126.883803 234.779964,126.999521 C234.674607,127.115238 234.526355,127.173097 234.341227,127.173097 L233.87314,127.173097 C232.317617,127.173097 231.537222,126.479544 231.537222,125.09469" id="Fill-98" fill="#231F20"></path>
                    <path d="M235.888171,124.65549 L235.888171,121.32523 C235.888171,121.200495 235.958158,121.091541 236.10039,120.999117 C236.243375,120.905942 236.407431,120.859354 236.593311,120.859354 C236.781449,120.859354 236.943247,120.905942 237.080212,120.999117 C237.220186,121.091541 237.287163,121.200495 237.287163,121.323727 L237.287163,124.645721 C237.287163,124.999637 237.42488,125.318987 237.693541,125.602269 C237.965212,125.886303 238.282788,126.026818 238.648528,126.026818 C239.022546,126.026818 239.343133,125.887055 239.609536,125.609032 C239.875939,125.329507 240.010645,125.008654 240.010645,124.645721 L240.010645,121.310202 C240.010645,121.18697 240.077622,121.081021 240.214587,120.992354 C240.354561,120.903688 240.521628,120.859354 240.715033,120.859354 C240.912202,120.859354 241.073247,120.903688 241.202686,120.992354 C241.331372,121.081021 241.396092,121.18697 241.396092,121.311705 L241.396092,124.65549 C241.396092,125.356558 241.124421,125.968959 240.583337,126.493445 C240.039995,127.017179 239.396564,127.279422 238.648528,127.279422 C237.900492,127.279422 237.254804,127.017179 236.709204,126.493445 C236.159842,125.968959 235.888171,125.356558 235.888171,124.65549" id="Fill-100" fill="#231F20"></path>
                    <path d="M245.478079,126.706771 L245.478079,121.311629 C245.478079,121.178629 245.542798,121.070426 245.671485,120.985516 C245.800923,120.900607 245.96799,120.859279 246.171931,120.859279 C246.342008,120.859279 246.489508,120.90211 246.613679,120.987019 C246.737097,121.07268 246.799559,121.183138 246.799559,121.316889 L246.799559,121.802302 C247.181102,121.120019 247.77336,120.778878 248.574827,120.778878 C248.965401,120.778878 249.315337,120.90211 249.621625,121.149324 C249.928666,121.395036 250.162709,121.720398 250.321497,122.124658 C250.545005,121.685081 250.83549,121.350703 251.195962,121.122273 C251.556434,120.893844 251.935719,120.778878 252.336829,120.778878 C252.968972,120.778878 253.513066,121.016324 253.969865,121.491968 C254.427416,121.967612 254.659202,122.604059 254.659202,123.403562 L254.659202,126.706771 C254.659202,126.822488 254.586204,126.928437 254.443972,127.026121 C254.300987,127.124556 254.136931,127.172646 253.951051,127.172646 C253.773449,127.172646 253.612403,127.124556 253.469418,127.026121 C253.327186,126.92994 253.257199,126.823991 253.257199,126.708273 L253.257199,123.412579 C253.257199,122.979014 253.133028,122.637872 252.883181,122.390658 C252.635592,122.14194 252.345107,122.017206 252.016995,122.017206 C251.68813,122.017206 251.395388,122.14194 251.142531,122.390658 C250.888921,122.637872 250.762492,122.969245 250.762492,123.386279 L250.762492,126.721799 C250.762492,126.872081 250.692505,126.984793 250.555541,127.059934 C250.418577,127.135076 250.25151,127.172646 250.055094,127.172646 C249.877492,127.172646 249.715694,127.135076 249.576472,127.059934 C249.433487,126.984793 249.361242,126.872081 249.361242,126.721799 L249.361242,123.399805 C249.361242,123.000805 249.240082,122.672437 248.99475,122.416206 C248.750171,122.159223 248.459686,122.030731 248.120286,122.030731 C247.781638,122.030731 247.490401,122.155466 247.245821,122.40268 C247.001242,122.651398 246.880082,122.988031 246.880082,123.412579 L246.880082,126.708273 C246.880082,126.823991 246.810094,126.92994 246.66711,127.026121 C246.524878,127.124556 246.360821,127.172646 246.171931,127.172646 C245.978526,127.172646 245.811459,127.124556 245.679763,127.026121 C245.545056,126.928437 245.478079,126.822488 245.478079,126.706771" id="Fill-102" fill="#231F20"></path>
                    <path d="M257.086103,125.348593 C257.086103,125.631875 257.164369,125.846779 257.325415,125.993305 C257.484203,126.141333 257.694165,126.213468 257.95229,126.213468 C258.29169,126.213468 258.611524,126.071451 258.918565,125.788169 C259.227864,125.503384 259.381384,125.200564 259.381384,124.881214 L259.381384,124.38979 L259.048004,124.38979 C258.646894,124.38979 258.318782,124.407073 258.065172,124.441638 C257.812315,124.478457 257.58655,124.570881 257.384866,124.721163 C257.18544,124.872949 257.086103,125.08109 257.086103,125.348593 M255.670555,125.520666 C255.670555,124.811333 255.936958,124.315401 256.472774,124.035875 C257.00558,123.757101 257.779955,123.615836 258.792136,123.615836 L259.381384,123.615836 L259.381384,123.370875 C259.381384,122.971124 259.270759,122.625474 259.053272,122.333926 C258.835032,122.043881 258.503909,121.897355 258.059904,121.897355 C257.678361,121.897355 257.341971,121.971745 257.051486,122.117519 C256.763259,122.264045 256.604471,122.336932 256.577379,122.336932 C256.426869,122.336932 256.305708,122.264045 256.211639,122.117519 C256.11757,121.971745 256.071665,121.808689 256.071665,121.631355 C256.071665,121.400672 256.286894,121.200045 256.717353,121.03248 C257.150823,120.863412 257.605364,120.778502 258.086996,120.778502 C259.002098,120.778502 259.680147,121.025717 260.121142,121.518644 C260.559879,122.01157 260.780376,122.625474 260.780376,123.363361 L260.780376,126.706395 C260.780376,126.831881 260.715657,126.939333 260.586971,127.033259 C260.457532,127.125683 260.296486,127.173022 260.10007,127.173022 C259.922468,127.173022 259.771205,127.125683 259.647787,127.033259 C259.521358,126.939333 259.459649,126.831881 259.459649,126.706395 L259.459649,126.240519 C258.864381,126.934073 258.192353,127.278971 257.446575,127.278971 C256.930325,127.278971 256.505134,127.128689 256.171001,126.826621 C255.837621,126.525305 255.670555,126.090237 255.670555,125.520666" id="Fill-104" fill="#231F20"></path>
                    <path d="M261.808436,126.213769 C261.808436,126.080769 261.856599,125.942509 261.951421,125.801244 C262.04549,125.659227 262.158372,125.587842 262.293079,125.587842 C262.373602,125.587842 262.486485,125.640441 262.629469,125.744888 C262.771702,125.848582 262.965107,125.953029 263.207429,126.058227 C263.44975,126.16117 263.740235,126.213769 264.081893,126.213769 C264.843474,126.213769 265.22276,125.971814 265.22276,125.489407 C265.22276,125.23017 265.112888,125.027289 264.89239,124.880012 C264.668883,124.733486 264.399469,124.616266 264.084903,124.532108 C263.767327,124.447198 263.455018,124.350266 263.142709,124.244317 C262.831153,124.136865 262.56475,123.952769 262.344253,123.695034 C262.120745,123.435797 262.01012,123.099916 262.01012,122.688893 C262.01012,122.167413 262.196,121.71882 262.570018,121.343114 C262.944036,120.966656 263.516727,120.778803 264.289597,120.778803 C264.797569,120.778803 265.25813,120.856198 265.672033,121.012492 C266.084431,121.168034 266.291383,121.352131 266.291383,121.56478 C266.291383,121.689515 266.240209,121.833034 266.137862,121.998345 C266.035515,122.162153 265.909087,122.244057 265.758577,122.244057 C265.704393,122.244057 265.521523,122.177181 265.209214,122.044181 C264.899916,121.911181 264.601153,121.845057 264.315936,121.845057 C263.960732,121.845057 263.692071,121.925458 263.509202,122.085509 C263.328589,122.247063 263.237531,122.425147 263.237531,122.622018 C263.237531,122.836921 263.347403,123.005989 263.570911,123.130724 C263.791408,123.256961 264.063079,123.359153 264.383666,123.439554 C264.7035,123.520707 265.018819,123.61839 265.330375,123.734108 C265.640426,123.850577 265.903819,124.051204 266.124316,124.336741 C266.342556,124.623029 266.452429,124.989718 266.452429,125.436057 C266.452429,126.010888 266.248487,126.462486 265.839099,126.788599 C265.427454,127.116215 264.851753,127.279272 264.103717,127.279272 C263.471574,127.279272 262.93049,127.168814 262.483474,126.945645 C262.034202,126.723978 261.808436,126.479769 261.808436,126.213769" id="Fill-106" fill="#231F20"></path>
                    <path d="M267.386344,124.628589 L267.386344,123.430086 C267.386344,122.638849 267.617378,121.999397 268.077939,121.511731 C268.540758,121.023312 269.229342,120.778352 270.147454,120.778352 C270.725413,120.778352 271.210056,120.879041 271.599878,121.078166 C271.992709,121.278041 272.186867,121.502714 272.186867,121.751431 C272.186867,121.903216 272.132684,122.053499 272.022811,122.203781 C271.909176,122.355567 271.77748,122.430708 271.626969,122.430708 C271.584074,122.430708 271.425286,122.363832 271.153615,122.230832 C270.881944,122.097832 270.583181,122.030205 270.255069,122.030205 C269.275247,122.030205 268.785337,122.499086 268.785337,123.434595 L268.785337,124.624832 C268.785337,125.559589 269.280515,126.026968 270.267862,126.026968 C270.604253,126.026968 270.908283,125.955584 271.180707,125.815069 C271.452378,125.672301 271.613423,125.600917 271.667607,125.600917 C271.845209,125.600917 271.990452,125.672301 272.100324,125.815069 C272.213959,125.955584 272.26739,126.107369 272.26739,126.26742 C272.26739,126.516137 272.062696,126.746821 271.654061,126.959471 C271.244673,127.172872 270.747237,127.278821 270.160247,127.278821 C269.23461,127.278821 268.540758,127.036866 268.077939,126.553708 C267.617378,126.069798 267.386344,125.428092 267.386344,124.628589" id="Fill-108" fill="#231F20"></path>
                    <path d="M274.360837,124.624532 C274.360837,124.985961 274.495543,125.311323 274.761946,125.596859 C275.028349,125.88465 275.348184,126.026667 275.722202,126.026667 C276.088694,126.026667 276.405518,125.88465 276.677941,125.596859 C276.946602,125.311323 277.083566,124.985961 277.083566,124.624532 L277.083566,123.407244 C277.083566,123.05408 276.946602,122.736984 276.677941,122.455204 C276.405518,122.172673 276.088694,122.030656 275.722202,122.030656 C275.348184,122.030656 275.028349,122.172673 274.761946,122.455204 C274.495543,122.736984 274.360837,123.05408 274.360837,123.407244 L274.360837,124.624532 Z M272.961844,124.628289 L272.961844,123.403486 C272.961844,122.702419 273.233515,122.088515 273.774599,121.564029 C274.317941,121.040294 274.96664,120.778803 275.722202,120.778803 C276.459702,120.778803 277.10539,121.038792 277.65701,121.558018 C278.20863,122.077244 278.483311,122.69265 278.483311,123.403486 L278.483311,124.628289 C278.483311,125.321842 278.20562,125.937249 277.648732,126.473006 C277.094855,127.010266 276.451423,127.279272 275.722202,127.279272 C274.985454,127.279272 274.339013,127.013272 273.787393,126.479769 C273.235773,125.947769 272.961844,125.330108 272.961844,124.628289 L272.961844,124.628289 Z" id="Fill-110" fill="#231F20"></path>
                    <path d="M279.696649,125.09469 L279.696649,118.420645 C279.696649,118.297414 279.769647,118.189962 279.911879,118.101295 C280.054864,118.012628 280.212899,117.968295 280.390501,117.968295 C280.568103,117.968295 280.732912,118.012628 280.878154,118.101295 C281.025654,118.189962 281.098652,118.297414 281.098652,118.420645 L281.098652,120.858979 L282.72642,120.858979 C282.842312,120.858979 282.936381,120.910075 283.006369,121.012267 C283.076356,121.114459 283.113983,121.236939 283.113983,121.378956 C283.113983,121.520221 283.076356,121.64195 283.006369,121.744142 C282.936381,121.846334 282.842312,121.897431 282.72642,121.897431 L281.098652,121.897431 L281.098652,125.09469 C281.098652,125.414041 281.168639,125.641719 281.305603,125.774719 C281.44332,125.907719 281.684889,125.974594 282.032568,125.974594 L282.500654,125.974594 C282.685782,125.974594 282.834034,126.032453 282.939392,126.146668 C283.047006,126.262385 283.100437,126.404402 283.100437,126.57347 C283.100437,126.741786 283.047006,126.883803 282.939392,126.999521 C282.834034,127.115238 282.685782,127.173097 282.500654,127.173097 L282.032568,127.173097 C280.477045,127.173097 279.696649,126.479544 279.696649,125.09469" id="Fill-112" fill="#231F20"></path>
                    <path d="M285.115844,125.348593 C285.115844,125.631875 285.19411,125.846779 285.355156,125.993305 C285.513944,126.141333 285.723906,126.213468 285.982031,126.213468 C286.321431,126.213468 286.641265,126.071451 286.948306,125.788169 C287.257605,125.503384 287.411125,125.200564 287.411125,124.881214 L287.411125,124.38979 L287.077745,124.38979 C286.676635,124.38979 286.348523,124.407073 286.095666,124.441638 C285.842056,124.478457 285.616291,124.570881 285.414607,124.721163 C285.215181,124.872949 285.115844,125.08109 285.115844,125.348593 M283.700296,125.520666 C283.700296,124.811333 283.966699,124.315401 284.502515,124.035875 C285.035321,123.757101 285.809696,123.615836 286.821878,123.615836 L287.411125,123.615836 L287.411125,123.370875 C287.411125,122.971124 287.3005,122.625474 287.083013,122.333926 C286.864773,122.043881 286.533651,121.897355 286.089645,121.897355 C285.708102,121.897355 285.371712,121.971745 285.081227,122.117519 C284.793,122.264045 284.634212,122.336932 284.60712,122.336932 C284.45661,122.336932 284.335449,122.264045 284.24138,122.117519 C284.147311,121.971745 284.101406,121.808689 284.101406,121.631355 C284.101406,121.400672 284.316635,121.200045 284.747094,121.03248 C285.180564,120.863412 285.635105,120.778502 286.116737,120.778502 C287.031839,120.778502 287.709888,121.025717 288.150883,121.518644 C288.58962,122.01157 288.810117,122.625474 288.810117,123.363361 L288.810117,126.706395 C288.810117,126.831881 288.745398,126.939333 288.616712,127.033259 C288.487273,127.125683 288.326227,127.173022 288.129811,127.173022 C287.952209,127.173022 287.800946,127.125683 287.677528,127.033259 C287.551099,126.939333 287.48939,126.831881 287.48939,126.706395 L287.48939,126.240519 C286.894122,126.934073 286.222094,127.278971 285.476316,127.278971 C284.960066,127.278971 284.534875,127.128689 284.200742,126.826621 C283.867362,126.525305 283.700296,126.090237 283.700296,125.520666" id="Fill-114" fill="#231F20"></path>
                    <path d="M292.886837,123.715097 C292.731059,123.568572 292.652793,123.395747 292.652793,123.196623 C292.652793,122.997498 292.731059,122.826928 292.886837,122.684911 C293.042615,122.542142 293.239031,122.47151 293.473074,122.47151 C293.689056,122.47151 293.877194,122.542142 294.03824,122.684911 C294.200038,122.826928 294.280561,122.997498 294.280561,123.196623 C294.280561,123.395747 294.200038,123.568572 294.03824,123.715097 C293.877194,123.863125 293.689056,123.935261 293.473074,123.935261 C293.239031,123.935261 293.042615,123.863125 292.886837,123.715097" id="Fill-116" fill="#231F20"></path>
                </g>
            </g>
        </g>
    </g>
</svg>