<?xml version="1.0" encoding="UTF-8"?>
<svg width="139px" height="45px" viewBox="0 0 139 45" version="1.1" xmlns="http://www.w3.org/2000/svg" xmlns:xlink="http://www.w3.org/1999/xlink">
    <!-- Generator: Sketch 50.2 (55047) - http://www.bohemiancoding.com/sketch -->
    <title>logo.svg</title>
    <desc>Created with Sketch.</desc>
    <defs>
        <polygon id="path-1" points="0 45 139 45 139 0 0 0"></polygon>
    </defs>
    <g id="Page-1" stroke="none" stroke-width="1" fill="none" fill-rule="evenodd">
        <g id="REGISTRO" transform="translate(-1098.000000, -37.000000)">
            <g id="logo.svg" transform="translate(1098.000000, 37.000000)">
                <path d="M0,39.2666885 L3.07601295,37.4964737 C3.47029491,40.0670822 5.9941597,41.5856979 8.63661591,41.5856979 C11.0027679,41.543382 13.5266327,40.2789897 13.5266327,37.4113498 C13.5266327,35.3459078 11.7121686,34.0391996 9.85873656,33.6593407 L6.86173342,33.0272265 C4.02244307,32.3942923 1.73484062,30.2020666 1.73484062,26.4075775 C1.73484062,22.402657 5.20513553,20.0418238 8.83345005,20 C11.8309134,20 14.9069264,21.5176316 16.247485,24.7216664 L13.1323507,26.4505495 C12.8954747,24.510907 10.8051667,23.4144661 8.83345005,23.4144661 C6.90177529,23.456782 5.20513553,24.5530589 5.20513553,26.4075775 C5.20513553,28.1789405 6.34870662,29.1904215 8.20229208,29.5278006 L10.8840231,30.0336231 C13.960036,30.6237494 17.1150588,33.3641135 16.9967742,37.4113498 C16.8390614,42.217484 13.0136059,45 8.63661591,45 C5.08700436,45 1.45884325,43.1874692 0,39.2666885 Z" id="Fill-1" fill="#6DBD46"></path>
                <mask id="mask-2" fill="white">
                    <use xlink:href="#path-1"></use>
                </mask>
                <g id="Clip-4"></g>
                <path d="M28.1212021,16.5394166 L39.1379117,16.5394166 L39.1379117,14 L28.1212021,14 L28.1212021,16.5394166 Z M32.684992,41.6828273 C37.131534,41.6828273 40.7510651,37.7516702 40.7510651,32.8780295 C40.7510651,28.0056632 37.131534,24.0332446 32.684992,24.0332446 C28.2387561,24.0332446 24.6585627,28.0056632 24.6585627,32.8780295 C24.6585627,37.7516702 28.2387561,41.6828273 32.684992,41.6828273 Z M40.4363632,24.4421958 L40.7510651,24.4421958 L40.7510651,21.4530444 L44.2528891,21.4530444 L44.2528891,34.0250683 C44.2528891,37.6290008 44.4887625,41.027422 45,44.221766 L42.0495166,44.5900929 L41.380622,40.2499846 L41.1449017,40.2499846 C39.2954157,43.4029077 36.5015179,45 32.684992,45 C26.2329906,45 21,39.5945793 21,32.8780295 C21,26.1627541 26.2329906,20.7159126 32.684992,20.7159126 C35.9902804,20.7159126 38.5870303,21.9445187 40.4363632,24.4421958 Z" id="Fill-3" fill="#6DBD46" mask="url(#mask-2)"></path>
                <path d="M71.951902,24.1736871 C73.4672055,21.3777519 75.8375127,20 79.1405236,20 C81.8220847,20 83.9982927,21.001529 85.5908428,22.9633438 C87.1844511,24.9251587 88,27.6382826 88,31.0606606 L88,44 L84.5414377,44 L84.5414377,31.0606606 C84.50289,28.3900789 83.958838,26.4281017 82.8318839,25.2172713 C81.7052322,24.0064409 80.3456313,23.3811347 78.752023,23.3811347 C75.6045635,23.3811347 73.0787049,26.0939339 73.0787049,31.0606606 L73.0787049,44 L69.6594462,44 L69.6594462,31.0606606 C69.620445,25.7180358 67.0555852,23.3811347 63.908428,23.3811347 C60.6831173,23.3811347 58.1962599,26.0939339 58.1962599,31.0606606 L58.1962599,44 L54.7386046,44 L54.7386046,31.0606606 C54.7386046,27.721581 54.5048996,24.299203 54,20.7513091 L56.9140568,20.3755734 L57.49711,24.1736871 L57.6913603,24.1736871 C59.4399153,21.3777519 61.73222,20 64.6465792,20 C67.9495901,20 70.2811983,21.3777519 71.7189529,24.1736871 L71.951902,24.1736871 Z" id="Fill-5" fill="#6DBD46" mask="url(#mask-2)"></path>
                <path d="M92,39.2666885 L95.0764687,37.4964737 C95.4707501,40.0670822 97.9952248,41.5856979 100.637217,41.5856979 C103.002598,41.543382 105.527073,40.2789897 105.527073,37.4113498 C105.527073,35.3459078 103.712765,34.0391996 101.859336,33.6593407 L98.8621836,33.0272265 C96.0228974,32.3942923 93.7357586,30.2020666 93.7357586,26.4075775 C93.7357586,22.402657 97.2057416,20.0418238 100.834204,20 C103.83151,20 106.907058,21.5176316 108.247768,24.7216664 L105.132792,26.4505495 C104.895456,24.510907 102.805611,23.4144661 100.834204,23.4144661 C98.9013049,23.456782 97.2057416,24.5530589 97.2057416,26.4075775 C97.2057416,28.1789405 98.3500781,29.1904215 100.203661,29.5278006 L102.885081,30.0336231 C105.960629,30.6237494 109.115494,33.3641135 108.996749,37.4113498 C108.839957,42.217484 105.0142,45 100.637217,45 C97.0880708,45 93.4593014,43.1874692 92,39.2666885" id="Fill-6" fill="#6DBD46" mask="url(#mask-2)"></path>
                <path d="M126.68531,41.5850122 C131.131223,41.5850122 134.750615,37.5379352 134.750615,32.5207471 C134.750615,27.504707 131.131223,23.4146597 126.68531,23.4146597 C122.239397,23.4146597 118.659341,27.504707 118.659341,32.5207471 C118.659341,37.5379352 122.239397,41.5850122 126.68531,41.5850122 M134.436385,23.836982 L134.750615,23.836982 L134.750615,20.7588679 L138.252305,20.7588679 L138.252305,33.7014452 C138.252305,37.4111565 138.48817,40.9106087 139,44.1988178 L136.048864,44.5786618 L135.380607,40.1090985 L135.143825,40.1090985 C133.294716,43.3558135 130.502302,45 126.68531,45 C120.232484,45 115,39.434695 115,32.5207471 C115,25.6067991 120.232484,20 126.68531,20 C129.990625,20 132.587276,21.2648346 134.436385,23.836982" id="Fill-7" fill="#6DBD46" mask="url(#mask-2)"></path>
                <path d="M70.0363022,15 C62.6889728,15 59.6043075,8.19014685 59,4.58972209 L62.1321935,4 C62.1864281,4.31199788 63.5395229,11.6456386 70.0363022,11.6456386 C76.5218555,11.6456386 77.8109476,4.3256766 77.8632869,4.01398611 L81,4.57558229 C80.4247051,8.18138632 77.3936912,15 70.0363022,15" id="Fill-8" fill="#6DBD46" mask="url(#mask-2)"></path>
                <path d="M74,3.5 C74,5.43338658 72.4330861,7 70.5003993,7 C68.5670736,7 67,5.43338658 67,3.5 C67,1.56661342 68.5670736,0 70.5003993,0 C72.4330861,0 74,1.56661342 74,3.5" id="Fill-9" fill="#6DBD46" mask="url(#mask-2)"></path>
                <path d="M70.5003728,0.464887431 C68.8259378,0.464887431 67.4649469,1.82644998 67.4649469,3.49977635 C67.4649469,5.17310273 68.8259378,6.53511257 70.5003728,6.53511257 C72.173913,6.53511257 73.5350531,5.17310273 73.5350531,3.49977635 C73.5350531,1.82644998 72.173913,0.464887431 70.5003728,0.464887431 M70.5003728,7 C68.570053,7 67,5.43014761 67,3.49977635 C67,1.56985239 68.570053,0 70.5003728,0 C72.429947,0 74,1.56985239 74,3.49977635 C74,5.43014761 72.429947,7 70.5003728,7" id="Fill-10" fill="#6DBD46" mask="url(#mask-2)"></path>
            </g>
        </g>
    </g>
</svg>